<?xml version="1.0" encoding="utf-8"?>
<!-- Generator: Adobe Illustrator 27.0.0, SVG Export Plug-In . SVG Version: 6.00 Build 0)  -->
<svg version="1.1" id="Capa_1" xmlns="http://www.w3.org/2000/svg" xmlns:xlink="http://www.w3.org/1999/xlink" x="0px" y="0px"
	 viewBox="0 0 365.1 163.5" style="enable-background:new 0 0 365.1 163.5;" xml:space="preserve">
<style type="text/css">
	.st0{fill:#5C6C74;}
	.st1{fill-rule:evenodd;clip-rule:evenodd;fill:#5C6C74;}
</style>
<g>
	<g>
		<g>
			<path class="st0" d="M73.2,101.9l-1.5,0.1l-0.4,0.5v0.3l-2.4,0.1h-3.5l-0.6-0.3l-0.5,0l-0.6,0.1l-0.8,0.2h-5.4v-0.5l-0.7-0.1
				l-2,0.2l-0.2,3.9l4.1-1.2c0,0,7.2-1.1,7.2-1.1c0.1,0,4.9-0.7,5.1-0.7c0.1,0,2.3-0.8,2.3-0.8V101.9z"/>
			<path class="st1" d="M64.7,25.1c-0.1-1.6-1.9-2.8-2.4-3.2c-0.5-0.4,0.3-1,0.5-1c1.8-0.5,0.8-2.6-0.6-1.8
				c-1.4,0.7-1.8-1.2-0.4-1.2c1,0,1.8-0.7,1.5-1.6c-0.3-0.9-1.1-1.1-2-0.7c-1,0.4-1.4-0.8-0.5-1.1c1.2-0.5,0-2.5-1.2-1.6
				c-1.3,1-1-0.7-1.4-1.6c-0.4-1-1.4-2.5-3.9-2.6c-2.4,0.1-3.4,1.6-3.9,2.6c-0.4,0.9-0.1,2.7-1.4,1.6c-1.2-0.9-2.4,1.1-1.2,1.6
				c0.8,0.3,0.4,1.5-0.6,1.1c-0.9-0.4-1.7-0.2-2,0.7c-0.3,0.8,0.6,1.6,1.5,1.6c1.4,0,0.9,1.9-0.4,1.2c-1.4-0.7-2.3,1.4-0.5,1.8
				c0.2,0,1,0.7,0.4,1c-0.5,0.4-2.3,1.6-2.4,3.2c-0.3,3.3,3,4.3,5.2,2.7c-2.1,0-2.1-3.2,0.2-3.2h5.1h5c2.2,0,2.3,3.2,0.2,3.2
				C61.6,29.3,64.9,28.3,64.7,25.1"/>
			<path class="st1" d="M93.7,40.5c3-2.3,3.2-5.8,3.3-6.3c-0.7,0.3-1,0.3-1.6,0.2c0.4-1.6,0.2-3,0.2-3s-1.3,0.1-3.3-1.4
				c-0.2-0.1,0.9,2.1,0.7,2.2c-1.5,1.1-2.8,2.9-2.5,4.8c0.5-0.7,1.8-1.3,1.9-1.4c-0.6,0.8-1.4,2.6-0.8,4.1c1.1-1.4,2-1.6,2.1-1.6
				C93.8,38.3,93.5,39.4,93.7,40.5"/>
			<path class="st1" d="M14.6,40.5c-3-2.3-3.2-5.8-3.3-6.3c0.7,0.3,1,0.3,1.5,0.2c-0.4-1.6-0.2-3-0.2-3s1.2,0.1,3.3-1.4
				c0.2-0.1-0.9,2.1-0.7,2.2c1.5,1.1,2.9,2.9,2.5,4.8c-0.5-0.7-1.8-1.3-1.9-1.4c0.6,0.8,1.4,2.6,0.8,4.1c-1.1-1.4-2-1.6-2.1-1.6
				C14.6,38.3,14.8,39.4,14.6,40.5"/>
			<path class="st0" d="M65.5,6.6c0.2-0.1,0.3-0.2,0.3-0.2c0,0-0.1-0.1-0.2-0.2l-0.1,0c-2.1-1.5-6.1-1.9-9.2-2c0,0-0.2,0-0.4-0.1
				c-0.2-0.2-0.3-0.3-0.5-0.5c-0.3-0.3-0.6-0.5-0.8-0.7c-0.3-0.2-0.7-0.8-0.8-0.6c-0.1,0.2,0.1,0.2,0.1,0.2c0,0.1,0,0.1-0.1,0.2
				c-0.1,0-0.3,0-0.5,0c0,0-0.1,0-0.2,0c-0.4,0-0.3,0.3-0.5,0.5c0,0-0.1,0-0.1,0.1c0,0.1,1.1,0.6,1.1,0.7c0,0-1.3-0.2-1.5-0.2
				c-0.2,0-0.2,0.2-0.3,0.3l-0.1,0.1c0,0.1-0.2,0-0.1,0.1c0.1,0.2,0.7,0.2,0.7,0.2c0.1,0,0.1,0.1,0.1,0.2c0,0.1-0.1,0.2-0.1,0.2
				l-0.1,0c0,0-0.1,0-0.1,0l-0.8,0.1c-0.7,0.1-1.3,0.2-2,0.3c-0.2,0-0.3,0-0.4,0.1c-0.4,0.1-0.8,0.1-1.2,0.1c-0.4,0-0.7-0.2-1-0.4
				c0,0-0.6-0.3-0.5,0.2c-0.1,0.1,0.4,0.4,0.3,0.4c-0.1,0-0.3,0.1-0.4,0.1c-0.2,0-0.3,0-0.5,0c-0.8,0-1.5-0.2-2.1-0.7
				c-0.1-0.1-0.2-0.1-0.3-0.2l-0.1-0.1c-0.6-0.3-1.2-0.5-1.8-0.6c0,0-0.1,0-0.1,0c0,0.2,0,0.5,0,0.8c0,0.1,0,0.2,0,0.3v0.1
				c0,0.1,0,0.1,0,0.1c0,0.1,0,0.1,0,0.2c0,0.1,0.1,0.2,0.1,0.3c0,0,0,0.1,0,0.2c0.2,0,2.2,0.2,3.1,0.3c0.3,0,0.2,0.1,0,0.1
				c-0.9,0.1-2.8,0.2-3.1,0.2c0,0.1,0,0.3-0.1,0.4c0,0.1,0,0.2,0,0.2c0,0,0,0.1,0,0.1c0,0,0,0.1,0,0.1c-0.1,0-0.1,0.1-0.1,0.2
				c-0.1,0.1-0.1,0.2-0.1,0.2C41.1,8,41,8.2,41,8.4l0,0.1c0.7,0,1.5-0.2,2.4-0.5c0.7-0.3,1.4-0.5,2.1-0.5c0.2,0,0.3,0,0.4,0
				c0.2,0,0.4,0.1,0.6,0.1l0.3,0.1c0.1,0,0.2,0.1,0.2,0.2v0.1c0,0.1-0.1,0.2-0.2,0.2l-0.1,0c-0.1,0-0.2,0-0.3,0.1c0,0-0.1,0-0.1,0.1
				c-0.1,0.5,0.1,1,0.2,1.5c0.1,0.3,0.2,0.3,0.2,0.3c0.1,0,0.2,0,0.3-0.1c0.7-0.3,1.4-0.7,2.1-1.1c0.3-0.2,0.7-0.4,1.2-0.4
				c0.1,0,0.1,0,0.2,0c0.4,0.1,0.8,0.1,1.3,0.1l0.8,0.1c0.1,0,0.2,0,0.3,0l0.1,0c0,0,0.1,0,0.1,0.1c0,0,0,0.1,0,0.1
				c0,0.2-0.1,0.3-0.1,0.4c0,0,0,0.1,0,0.1c0,0,0,0.1,0,0.1l0,0.2c-0.1,0.2-0.1,0.4-0.1,0.6c0,0,0,0,0,0s0,0,0.1,0
				c0.1-0.1,0.3-0.2,0.4-0.3c0.1-0.1,0.3-0.3,0.4-0.4l0.2-0.2c0-0.1,0.1-0.1,0.1-0.1c0.1,0,0.1,0,0.1,0.1c0.1,0.1,0.1,0.1,0.1,0.1
				c0,0,0,0,0,0.1c0,0,0,0,0,0c0.2-0.2,0.3-0.3,0.4-0.5c0.1-0.2,0.3-0.2,0.4-0.2h0.5c0.5,0,1.1,0,1.6,0c0.5,0,0.9-0.1,1.4-0.2
				c0.1,0,0.3-0.1,0.4-0.1c0.1-0.3,0.2-1.1,0.6-1.7C59.8,7,59.9,7,60,7.1c0.1,0.1,0.1,0.2,0.1,0.3c-0.5,0.6-0.6,1.8-0.6,1.8
				c0,0.2-0.1,0.4,0.2,0.6c0.2,0.1,0.8-1,0.9-1.1c0.1-0.1,0.2-0.2,0.3-0.2c0.4-0.1,0.8-0.2,1.2-0.3L62.5,8c0,0,0.1,0,0.1,0
				c-0.7-0.1-1.2-0.4-1.5-0.8C60.6,6.5,61,5.6,61,5.6c0-0.1,0.2-0.1,0.2-0.1c0.1,0,0.1,0.1,0.1,0.2c0,0-0.3,0.7,0.1,1.2
				c0.3,0.4,1,0.7,2.1,0.7c-0.8-0.2-1.4-0.5-1.6-0.9c-0.3-0.6,0-1.2,0-1.2c0-0.1,0.2-0.1,0.2-0.1c0.1,0,0.1,0.1,0.1,0.2
				c0,0-0.2,0.5,0,0.9c0.3,0.5,1,0.8,2.2,0.9C65.7,7.2,65.5,7,65.5,7h-0.1c0,0-0.1,0-0.2-0.1c-0.1-0.1-0.1-0.1,0-0.2
				C65.3,6.6,65.4,6.6,65.5,6.6 M63,6.3c-0.3,0-0.6-0.2-0.6-0.5c0-0.3,0.3-0.5,0.6-0.5c0.4,0,0.6,0.2,0.6,0.5
				C63.6,6,63.4,6.3,63,6.3"/>
			<path class="st0" d="M30,10c1.7,3.3-2.4,6.4,2.1,11.4c-1.1-3.6,0.2-4.6,0.5-5.1c-0.7-0.4-2.1,0.1-2.1,0.1s1.4-1.7,4.2-1.8
				c-0.1-0.7-0.7-1.4-1-1.6c1.6,0,4.7,1.3,4.8,4.1c0.1,2.3-1.7,2.6-1.9,2.6c-0.2,0-2.1-0.2-1.9-2.3c0.7,1.8,2.1,0.6,2.1-0.4
				c-0.1-1.2-0.8-1.5-1.4-1.6c-1.5-0.1-1.8,1-1.9,2.2c-0.1,1.7,1.6,3.4,3.2,3.4c1.6,0,4-1.3,3.7-4.3c-0.5-4.6-4.6-5-4.6-5
				s0.8-0.8,0.4-2c-2.3,1.7-4.2,1.7-4.2,1.7S31.6,10.3,30,10"/>
			<path class="st0" d="M27.6,12.8c-0.3,0.6,0,1.5,1.1,1.9c-1.3,0.5-1.3,1.8-1.3,1.9c-0.3-0.6-0.5-1.2-1-1.8
				c-0.3,0.3-0.6,0.9-0.7,1.5c-0.3-0.2-1.4-1.1-3.3-1.3c1.2-1,2.7-0.8,2.7-0.8s0.1-0.7-0.1-1.3c1.2,0.3,1.5,0.9,1.5,0.9
				S26.7,12.9,27.6,12.8"/>
			<path class="st0" d="M21.8,15.6c2.9,0.1,4.3,2,4.3,2s-0.1-1.3,0.4-1.8c0.5,1.6,1.2,1.8,1.2,1.8s0-1.4,1.2-1.8
				c1.5,6.5,5.1,8.7,9.7,9.7c0.7,0.2,0.8,1.2-0.3,1.1c-6.1-0.5-13.1-8.4-13.1-8.4S23.5,16.4,21.8,15.6"/>
			<path class="st0" d="M9.8,13.8c0,0,0.5,2.8,1.5,4.5c-1.4,0.4-2.9,0.8-2.9,0.8l2.1,1.1l-1.4,0.7c0,0-0.5-1.6-3.3-1.4
				c0.7-0.8,1.8-1.2,1.8-1.2l-0.9-1.1c0,0,1.6-0.3,2.9,0.1C9.5,15.6,9.8,13.8,9.8,13.8"/>
			<path class="st0" d="M14.4,21.3c0,0-1.8-0.4-2.8-0.8C9,21,7.8,23.2,7.8,23.2s2.9-0.2,3.5,0.2C12.4,22.1,14.4,21.3,14.4,21.3"/>
			<path class="st0" d="M10.2,13.2c5.3,6.1,12.2,6.1,14.4,6.3c4,4.9,9.8,6.3,11.1,9c-1.3-1.5-3.6-2.8-6-2.4
				c-2.9,0.5-3.4-1.3-10.7-1.8c1.1-0.9,2.2-0.9,2.2-0.9s-1.5-1.6-6.7-0.9c0.7-1.1,3.3-1.2,3.3-1.2s-4,0-7.8-2
				c0.7-0.1,1.2-0.2,2.1-0.6C11.8,18.2,10.8,16.4,10.2,13.2"/>
			<path class="st0" d="M54.2,34.6c0,0-1.5-4.9-6.1-4.9c-2.8,0-4-1.4-4.5-2.7c-0.5,1.2,0.3,2.1,0.3,2.1s-1.3,0.1-2.4-3
				c-1.5,2.6,0,4.2,0,4.2s-1.4,0.2-2.7-1.9c-1.2,2.2,0.2,3.2,0.2,3.2s-3,1.9-8.8-1.1c-0.9-0.5-0.6-1.4-0.1-1.1
				c2.4,3.6,4.9-1.9,1.5-2c-3.6,0-2.8,3.5-2.8,3.5s-2.7,0.5-2.5,3.2c4-4.8,6.8,1.9,14.4-1.2c4.6-1.9,9.2-2.7,11.7,1.8H54.2z"/>
			<path class="st0" d="M78.4,10c-1.7,3.3,2.4,6.4-2.1,11.4c1.1-3.6-0.2-4.6-0.5-5.1c0.7-0.4,2.1,0.1,2.1,0.1s-1.4-1.7-4.1-1.8
				c0.1-0.7,0.7-1.4,1-1.6c-1.6,0-4.7,1.3-4.8,4.1c-0.1,2.3,1.7,2.6,1.9,2.6c0.2,0,2.1-0.2,1.9-2.3c-0.7,1.8-2.1,0.6-2.1-0.4
				c0-1.2,0.8-1.5,1.4-1.6c1.5-0.1,1.8,1,1.9,2.2c0.1,1.7-1.6,3.4-3.2,3.4c-1.6,0-4-1.3-3.7-4.3c0.5-4.6,4.7-5,4.7-5s-0.8-0.8-0.4-2
				c2.3,1.7,4.2,1.7,4.2,1.7S76.8,10.3,78.4,10"/>
			<path class="st0" d="M80.8,12.8c0.2,0.6,0,1.5-1.1,1.9c1.3,0.5,1.3,1.8,1.4,1.9c0.3-0.6,0.5-1.2,1-1.8c0.3,0.3,0.6,0.9,0.7,1.5
				c0.3-0.2,1.4-1.1,3.3-1.3c-1.1-1-2.6-0.8-2.6-0.8s-0.1-0.7,0.1-1.3c-1.2,0.3-1.5,0.9-1.5,0.9S81.7,12.9,80.8,12.8"/>
			<path class="st0" d="M86.6,15.6c-2.9,0.1-4.2,2-4.2,2s0.1-1.3-0.4-1.8c-0.4,1.6-1.2,1.8-1.2,1.8s0-1.4-1.3-1.8
				c-1.5,6.5-5.1,8.7-9.6,9.7c-0.7,0.2-0.9,1.2,0.3,1.1c6.1-0.5,13.1-8.4,13.1-8.4S84.9,16.4,86.6,15.6"/>
			<path class="st0" d="M98.7,13.8c0,0-0.4,2.8-1.5,4.5c1.4,0.4,2.9,0.8,2.9,0.8L98,20.2l1.4,0.7c0,0,0.5-1.6,3.3-1.4
				c-0.7-0.8-1.8-1.2-1.8-1.2l0.9-1.1c0,0-1.6-0.3-2.9,0.1C99,15.6,98.7,13.8,98.7,13.8"/>
			<path class="st0" d="M94.1,21.3c0,0,1.8-0.4,2.8-0.8c2.5,0.4,3.8,2.6,3.8,2.6s-2.9-0.2-3.5,0.2C96.1,22.1,94.1,21.3,94.1,21.3"/>
			<path class="st0" d="M98.2,13.2c-5.3,6.1-12.2,6.1-14.4,6.3c-4,4.9-9.8,6.3-11.1,9c1.3-1.5,3.6-2.8,6-2.4c3,0.5,3.4-1.3,10.7-1.8
				c-1-0.9-2.2-0.9-2.2-0.9s1.5-1.6,6.7-0.9c-0.8-1.1-3.3-1.2-3.3-1.2s4,0,7.8-2c-0.7-0.1-1.1-0.2-2.1-0.6
				C96.6,18.2,97.6,16.4,98.2,13.2"/>
			<path class="st0" d="M79.2,27.3c2.5,0.1,3.7-1,6.7-1.5c1.4-0.3,3.6-0.6,5.5-0.9c-0.6-0.8-1.1-1.2-1.6-1.6c1.3-0.5,5.4,0,5.4,0
				s-0.3,1.6,0.5,2.9c-1.2-0.1-1.9-0.3-1.9-0.3s1.8,1.6,1.4,4.7c-2.5-1.5-4-3.3-4-3.3s0,1.9,0.2,3.6c-3-0.8-4.8-3.2-4.8-3.2
				s0.7,2.2,2,3.9c-1,0.1-1.9,0-1.9,0s0.9,0.5,1.2,2.6c-2.6-1.2-3.6-2.2-3.6-2.2s-0.6,0.8-0.5,1.6c-1.8-2.9-3.6-2.7-3.6-2.7
				S80.9,28.9,79.2,27.3"/>
			<path class="st0" d="M96.4,24.4c-0.2,0.8,0.7,2.8,0.7,2.8L95.5,27c0,0,2,2.6,1.2,6.3c0.9-0.6,0.9-0.7,1.6-1.4
				c1.3,9.4-7.1,10.1-7.1,10.1l2.6,1.4c0,0-1.6,1.8-5.8-1.1c0.4,1.9,1.4,2.1,1.4,2.1s-3.8,1.8-4.9,5.7c2.1-2.7,6.7-2.7,9.6-4
				c0,0.3-0.1,2.1,0.3,2.6c0.5-1.3,1.4-1.4,1.4-1.4s-1.6,4.4,0,9.3c1-9.1,4.4-12.7,6.2-16.9C104.4,34.1,102.2,24.4,96.4,24.4"/>
			<path class="st0" d="M93.2,47.7c-1.9,0.2-5.6,3.1-7.3,3.4c0.5,0.8,2.2,1.1,2.2,1.1s-1.9,1.6-3.6,2c1.3,1.2,2.4,1.3,2.4,1.3
				s-1.7,1.8-3.2,2.5c0,0.1,0.6,1.1,1.7,1c-1.1,1.5-1.7,2.7-0.5,5.2c0.4-1.8,1.4-3.9,4.1-5.8c0,0.3,0,0.8,0.6,1.2
				c0.2-1.8,1.5-4.2,1.5-4.2s0,1.2,0.7,1.8c0-2.3,1-4.7,1-4.7s0.7,0.5,1.4,0.4c-0.1-0.9,0.3-3.1,0.3-3.1l-0.8,0.5
				C93.7,50.3,93.4,48.7,93.2,47.7"/>
			<path class="st0" d="M83.4,60.8c0.3,0.5,0.2,7.4,2.4,9c-0.2,0-1,0-2-0.2c2.8,2.1,4.4,1.2,5.3-0.1c0,0.2,0.2,1.2-0.2,1.8
				c0.5-0.2,1-1.1,1-1.1s0,0.9,0.1,1.2c1.4,0,3.8-1.2,3.6-3.6c-0.5-3.2-4.8-2.9-5.1-0.5c-2.5,0.5-2.2-3,0.8-3.7
				c2.5-0.6,5.2,1.3,5.6,4.1c0.5,4-3.6,6.5-6,6.4c-2.6-0.2-5.9-1-5.7-6C83.3,65.4,83.5,63.3,83.4,60.8"/>
			<path class="st0" d="M90.1,67.8c0-0.8,0.6-1.4,1.4-1.4c0.8,0,1.4,0.6,1.4,1.4c0,0.8-0.6,1.4-1.4,1.4
				C90.8,69.2,90.1,68.6,90.1,67.8"/>
			<path class="st0" d="M29.1,27.3c-2.5,0.1-3.7-1-6.7-1.5c-1.4-0.3-3.6-0.6-5.5-0.9c0.6-0.8,1.1-1.2,1.5-1.6c-1.3-0.5-5.4,0-5.4,0
				s0.2,1.6-0.6,2.9c1.2-0.1,2-0.3,2-0.3s-1.8,1.6-1.4,4.7c2.5-1.5,4-3.3,4-3.3s0,1.9-0.2,3.6c3-0.8,4.8-3.2,4.8-3.2s-0.7,2.2-2,3.9
				c1,0.1,1.9,0,1.9,0s-0.9,0.5-1.2,2.6c2.6-1.2,3.6-2.2,3.6-2.2s0.6,0.8,0.6,1.6c1.8-2.9,3.6-2.7,3.6-2.7S27.4,28.9,29.1,27.3"/>
			<path class="st0" d="M12,24.4c0.2,0.8-0.7,2.8-0.7,2.8l1.6-0.1c0,0-1.9,2.6-1.2,6.3c-0.9-0.6-0.9-0.7-1.7-1.4
				C8.7,41.3,17.1,42,17.1,42l-2.6,1.4c0,0,1.7,1.8,5.8-1.1c-0.4,1.9-1.4,2.1-1.4,2.1s3.8,1.8,4.9,5.7c-2.1-2.7-6.7-2.7-9.6-4
				c0,0.3,0.1,2.1-0.3,2.6c-0.5-1.3-1.4-1.4-1.4-1.4s1.5,4.4,0,9.3c-1-9.1-4.4-12.7-6.2-16.9C3.9,34.1,6.2,24.4,12,24.4"/>
			<path class="st0" d="M15.1,47.7c1.9,0.2,5.6,3.1,7.3,3.4c-0.5,0.8-2.2,1.1-2.2,1.1s1.9,1.6,3.6,2c-1.3,1.2-2.4,1.3-2.4,1.3
				s1.7,1.8,3.2,2.5c0,0.1-0.6,1.1-1.7,1c1.1,1.5,1.7,2.7,0.5,5.2c-0.4-1.8-1.3-3.9-4.1-5.8c0.1,0.3,0,0.8-0.6,1.2
				c-0.2-1.8-1.4-4.2-1.4-4.2s0,1.2-0.7,1.8c0-2.3-1-4.7-1-4.7s-0.7,0.5-1.4,0.4c0.2-0.9-0.3-3.1-0.3-3.1l0.8,0.5
				C14.6,50.3,15,48.7,15.1,47.7"/>
			<path class="st0" d="M24.9,60.8c-0.3,0.5-0.2,7.4-2.4,9c0.3,0,1,0,2-0.2c-2.8,2.1-4.4,1.2-5.3-0.1c0,0.2-0.2,1.2,0.2,1.8
				c-0.5-0.2-1-1.1-1-1.1s0,0.9-0.1,1.2c-1.4,0-3.8-1.2-3.6-3.6c0.5-3.2,4.8-2.9,5.1-0.5c2.5,0.5,2.3-3-0.8-3.7
				c-2.5-0.6-5.2,1.3-5.5,4.1c-0.5,4,3.5,6.5,6,6.4c2.6-0.2,5.9-1,5.7-6C25.1,65.4,24.8,63.3,24.9,60.8"/>
			<path class="st0" d="M18.3,67.8c0-0.8-0.6-1.4-1.4-1.4c-0.8,0-1.4,0.6-1.4,1.4c0,0.8,0.6,1.4,1.4,1.4
				C17.6,69.2,18.3,68.6,18.3,67.8"/>
			<path class="st0" d="M54.2,34.6c0,0,1.5-4.9,6.1-4.9c2.8,0,4-1.4,4.5-2.7c0.5,1.2-0.3,2.1-0.3,2.1s1.3,0.1,2.4-3
				c1.5,2.6,0,4.2,0,4.2s1.4,0.2,2.7-1.9c1.2,2.2-0.3,3.2-0.3,3.2s3,1.9,8.8-1.1c0.9-0.5,0.6-1.4,0.1-1.1c-2.4,3.6-4.9-1.9-1.5-2
				c3.7,0,2.8,3.5,2.8,3.5s2.7,0.5,2.5,3.2c-4-4.8-6.8,1.9-14.4-1.2c-4.6-1.9-9.2-2.7-11.7,1.8H54.2z"/>
			<path class="st0" d="M102,129c-0.5,0.2-1.1,0.5-1.9,0.9c-0.4,0.2-0.8,0.4-1.2,0.6c-0.4,0.2-0.9,0.4-1.3,0.7
				c-0.4,0.2-0.9,0.4-1.4,0.7c-0.5,0.3-1,0.5-1.5,0.7c-0.5,0.2-1,0.5-1.5,0.7c-0.5,0.3-1,0.5-1.4,0.7c-0.1,0-0.2,0.1-0.3,0.1
				c0.3,0.3,0.5,0.6,0.5,1c0,0.2,0,0.3-0.1,0.4c0.2,0,0.3-0.1,0.5-0.1c0.5-0.2,1.1-0.3,1.6-0.6c0.5-0.2,1-0.4,1.6-0.7
				c0.5-0.2,1-0.5,1.5-0.8c0.5-0.3,1-0.6,1.4-0.9c0.5-0.3,0.9-0.6,1.3-0.9c0.4-0.3,0.8-0.6,1.1-0.9c1.3-1.1,2-2.1,2-2.1
				S102.4,128.7,102,129"/>
			<path class="st0" d="M69.5,144.3c-0.8,0.3-1.3,0.6-1.3,0.6s0.6,0.1,1.5,0.1C69.6,144.7,69.5,144.5,69.5,144.3"/>
			<path class="st0" d="M83.2,141c-0.5,0-1.1,0.1-1.9,0.2c-0.8,0.1-1.6,0.2-2.6,0.5c-0.1,0-0.2,0-0.4,0.1c-0.2,0.3-0.6,0.5-1,0.5
				c-0.2,0-0.4-0.1-0.6-0.2c-0.3,0.1-0.6,0.1-0.9,0.2c-0.5,0.1-1,0.3-1.4,0.4c-0.5,0.1-0.9,0.3-1.4,0.4c-0.4,0.1-0.8,0.2-1.1,0.3
				c0.2,0.2,0.2,0.4,0.2,0.7c0,0.2-0.1,0.4-0.2,0.6c0.4-0.1,0.9-0.1,1.3-0.1c1-0.1,2-0.4,3-0.6c1-0.3,2-0.6,2.9-0.9
				c0.9-0.3,1.7-0.7,2.4-1c0.7-0.3,1.3-0.6,1.7-0.9c0.4-0.2,0.6-0.4,0.6-0.4S83.7,140.9,83.2,141"/>
			<path class="st0" d="M66.8,142c0,0,0-0.1,0-0.1c-1.8,0.7-3,1.3-3,1.3c0,0,1.3-0.1,3.2-0.4C66.9,142.6,66.8,142.3,66.8,142"/>
			<path class="st0" d="M66.8,138.7c-0.3,0.2-0.5,0.4-0.7,0.5c-0.4,0.3-0.7,0.5-0.7,0.5s0.3,0,0.9-0.2c0.3-0.1,0.5-0.1,0.9-0.2
				C67,139.2,66.9,138.9,66.8,138.7"/>
			<path class="st0" d="M82.9,131.9c-0.6,0.1-1.3,0.3-2.3,0.5c-1.9,0.4-4.3,1.2-6.6,2.1c-0.6,0.2-1.1,0.5-1.7,0.8
				c-0.5,0.3-1.1,0.6-1.6,0.9c-0.7,0.4-1.3,0.7-1.8,1.1c0.4,0.2,0.6,0.7,0.6,1.1v0.1c0.6-0.2,1.3-0.5,2-0.7c0.5-0.2,1.1-0.5,1.7-0.7
				c0.6-0.3,1.1-0.5,1.7-0.8c2.3-0.9,4.5-2,6.2-2.9c0.8-0.5,1.5-0.9,2-1.2c0.5-0.3,0.7-0.5,0.7-0.5S83.5,131.8,82.9,131.9"/>
			<path class="st0" d="M67.2,153.4c0,0-1.3,0.1-2.8,0.4c-1.5,0.2-2,0.6-2,1.5c0.1,1.7,1.4,2.9,2.3,2.1c0.8-0.6,0.3-2.1-0.7-1.7
				c-0.8,0.3-1.2-0.7-0.2-1.1c0.3-0.1,0.6-0.2,0.8-0.1c1.9,0.4,2.2,4.4-0.1,4.3c-2.7-0.1-3.7-4-2.1-5.3c-0.3-0.5-1.3-1.1-3.5-6.1
				c-0.4,0.1-1,0.2-2.2,0.2c-0.2,0-0.4,0-0.7,0c2.1,3,4.4,11.2,8.2,11.7c1.2,0.2,3.6-0.2,4.2-1.1C68.9,157.3,69.2,154.4,67.2,153.4"
				/>
			<path class="st0" d="M50.6,143.7c0,0-0.2,0-0.6,0c-0.2,0-0.4,0-0.7-0.1c-0.3-0.1-0.6-0.1-0.9-0.2c-0.6-0.2-1.4-0.5-2-1
				c-0.3-0.2-0.7-0.5-1-0.8c-0.3-0.3-0.7-0.6-1-0.9c-1.3-1.2-2.5-2.4-3.4-3.4c-0.9-1-1.4-1.7-1.4-1.7c0,0,0-0.1,0-0.1
				c0.1,0,0.1,0,0.1,0c0,0,0.6,0.6,1.6,1.4c1,0.8,2.3,1.8,3.7,2.8c0.7,0.5,1.5,0.8,2.1,1.2c0.3,0.2,0.6,0.4,0.9,0.7
				c0.3,0.2,0.5,0.4,0.8,0.6c0.2,0.2,0.5,0.4,0.7,0.5c0.2,0.1,0.4,0.3,0.6,0.4c0.3,0.2,0.5,0.4,0.5,0.4
				C50.7,143.6,50.7,143.6,50.6,143.7C50.7,143.7,50.7,143.7,50.6,143.7"/>
			<path class="st0" d="M61.5,147c0,0,0.6-0.4,1.6-0.8c0.2-0.1,0.5-0.2,0.8-0.3c0.3,0,0.6-0.1,0.9-0.2c0.3,0,0.7-0.1,1-0.1
				c0.3,0,0.7,0,1.1,0c0.7,0,1.4,0.1,2.1,0.2c0.3,0,0.6,0.1,0.9,0.2c0.3,0.1,0.6,0.1,0.8,0.2c1,0.4,1.6,0.8,1.6,0.8
				s-0.7,0.1-1.8,0.2c-0.3,0-0.5,0-0.8,0.1c-0.3,0-0.6,0-0.9,0c-0.6,0-1.3,0-1.9,0c-0.7,0-1.3,0-1.9,0c-0.6,0-1.2-0.1-1.7-0.1
				C62.2,147.2,61.5,147,61.5,147"/>
			<path class="st0" d="M49.9,144.7c0,0-2.3-0.5-5.7-1.5c-0.4-0.1-0.9-0.3-1.3-0.4c-0.5-0.1-0.9-0.4-1.4-0.5
				c-0.9-0.4-1.9-0.8-2.9-1.2c-1-0.5-2.1-0.9-3.1-1.5c-1-0.5-2.1-1.1-3.1-1.7l-1.6-0.8c-0.5-0.3-1-0.6-1.5-0.9c-1-0.6-2-1.2-2.9-1.8
				c-0.9-0.6-1.8-1.2-2.6-1.8c-0.8-0.6-1.6-1.1-2.3-1.6c-0.7-0.5-1.4-1-2-1.4c-0.6-0.4-1-0.8-1.4-1.1c-0.8-0.6-1.3-1-1.3-1
				c0,0,0-0.1,0-0.1c0,0,0.1,0,0.1,0c0,0,0.5,0.4,1.3,0.9c0.4,0.3,0.9,0.7,1.5,1c0.6,0.4,1.3,0.8,2,1.3c0.7,0.5,1.6,0.9,2.4,1.5
				c0.9,0.5,1.8,1.1,2.7,1.6c1,0.5,1.9,1.1,3,1.6c0.5,0.3,1,0.6,1.5,0.8l1.6,0.8c1,0.5,2.1,1,3.1,1.5c1,0.5,2.1,0.9,3.1,1.3
				c1,0.4,1.9,0.9,2.8,1.3c0.9,0.5,1.8,0.8,2.6,1.2c3.2,1.4,5.3,2.5,5.3,2.5C50,144.6,50,144.6,49.9,144.7
				C50,144.7,50,144.7,49.9,144.7"/>
			<path class="st0" d="M44.8,141.7c0,0-1.1-0.2-2.7-0.9c-0.8-0.3-1.7-0.7-2.5-1.3c-0.5-0.3-0.9-0.5-1.3-0.9c-0.4-0.3-0.9-0.7-1.3-1
				c-0.9-0.6-1.8-1.3-2.7-1.9c-0.8-0.6-1.6-1.2-2.2-1.8c-1.3-1-2.2-1.7-2.2-1.7c0-0.1,0-0.1,0-0.1c0,0,0.1,0,0.1,0
				c0,0,1,0.6,2.4,1.4c0.7,0.4,1.6,0.9,2.5,1.4c0.9,0.5,1.8,1,2.8,1.6c1,0.5,1.9,1,2.8,1.6c0.9,0.5,1.7,1.1,2.3,1.6
				c1.3,1,2.1,1.9,2.1,1.9C44.9,141.6,44.9,141.7,44.8,141.7C44.9,141.7,44.8,141.7,44.8,141.7"/>
			<path class="st0" d="M48.8,145.8c0,0-0.8-0.1-2.1-0.5c-0.7-0.2-1.5-0.4-2.4-0.6c-0.9-0.3-1.9-0.6-3-1c-0.6-0.2-1.1-0.4-1.7-0.6
				c-0.6-0.2-1.2-0.5-1.8-0.7c-1.2-0.5-2.5-1-3.9-1.6c-1.3-0.6-2.7-1.2-4.1-2c-1.3-0.7-2.7-1.4-4.1-2.2c-1.3-0.8-2.7-1.5-4-2.3
				c-1.3-0.8-2.6-1.6-3.8-2.4c-2.5-1.6-4.7-3.2-6.5-4.6c-3.7-2.8-6-4.8-6-4.8c0,0,0-0.1,0-0.1c0,0,0.1,0,0.1,0c0,0,2.4,2,6.2,4.6
				c0.9,0.6,2,1.3,3.1,2c1.1,0.7,2.3,1.5,3.5,2.2c1.3,0.7,2.5,1.5,3.9,2.2c1.3,0.8,2.7,1.5,4.1,2.2c1.4,0.7,2.8,1.3,4.1,2
				c1.4,0.7,2.7,1.2,4.1,1.8c1.3,0.7,2.6,1.1,3.8,1.7c1.2,0.6,2.4,1,3.4,1.5c1.1,0.5,2.1,0.9,2.9,1.3c0.9,0.3,1.6,0.6,2.3,0.9
				c1.2,0.5,2,0.8,2,0.8C48.9,145.7,48.9,145.7,48.8,145.8C48.9,145.8,48.8,145.8,48.8,145.8"/>
			<path class="st0" d="M47.1,146.7c0,0-0.7-0.1-1.9-0.4c-0.6-0.1-1.3-0.3-2.1-0.5c-0.8-0.2-1.7-0.4-2.7-0.7c-0.5-0.1-1-0.3-1.6-0.4
				c-0.5-0.2-1.1-0.4-1.6-0.6c-1.1-0.4-2.3-0.9-3.5-1.3c-0.6-0.3-1.2-0.5-1.8-0.8c-0.6-0.3-1.2-0.6-1.8-0.9
				c-1.2-0.6-2.5-1.2-3.7-1.9c-1.3-0.6-2.4-1.3-3.6-2c-1.2-0.7-2.4-1.3-3.5-2c-1.1-0.7-2.2-1.4-3.2-2c-1-0.6-1.9-1.3-2.7-1.9
				c-1.7-1.2-3.1-2.3-4-3c-1-0.7-1.5-1.1-1.5-1.1c0,0,0-0.1,0-0.1c0,0,0.1,0,0.1,0c0,0,0.6,0.4,1.6,1.1c1,0.7,2.4,1.7,4.1,2.8
				c0.9,0.5,1.8,1.2,2.8,1.8c1,0.6,2.1,1.2,3.2,1.9c1.1,0.7,2.3,1.2,3.5,1.9c1.2,0.6,2.4,1.3,3.7,1.8c1.3,0.6,2.5,1.1,3.8,1.7
				c0.6,0.3,1.2,0.6,1.8,0.8c0.6,0.3,1.2,0.5,1.8,0.7c1.2,0.5,2.3,1,3.4,1.4c0.5,0.2,1.1,0.5,1.6,0.7c0.5,0.2,1.1,0.4,1.5,0.6
				c1,0.4,1.9,0.7,2.6,1c0.8,0.3,1.5,0.6,2,0.8c1.1,0.5,1.7,0.8,1.7,0.8C47.1,146.6,47.2,146.6,47.1,146.7
				C47.1,146.7,47.1,146.7,47.1,146.7"/>
			<path class="st0" d="M45.8,147.1c0,0-0.7,0.4-1.7,0.5c-0.5,0.1-1.1,0.2-1.8,0.2c-0.6,0-1.3-0.1-2-0.2c-2.8-0.2-5.5-0.6-5.5-0.6
				c0,0-0.1,0-0.1-0.1c0,0,0-0.1,0.1-0.1c0,0,2.8-0.4,5.5-0.5c0.7,0,1.4-0.2,2-0.2c0.7,0,1.3,0.1,1.8,0.2c1,0.2,1.7,0.6,1.7,0.6
				C45.9,147,45.9,147,45.8,147.1C45.9,147.1,45.8,147.1,45.8,147.1"/>
			<path class="st0" d="M41.2,145.9c0,0-0.8,0.2-2,0.3c-0.6,0-1.2,0-2-0.1c-0.7-0.1-1.5-0.3-2.2-0.5c-3-0.6-6-1.4-6-1.4
				c0,0-0.1-0.1-0.1-0.1c0,0,0.1,0,0.1,0c0,0,3.1,0,6.1,0.2c0.8,0,1.6,0,2.3,0.1c0.7,0.1,1.4,0.3,1.9,0.5c1.1,0.3,1.8,0.8,1.8,0.8
				C41.2,145.8,41.2,145.8,41.2,145.9C41.2,145.9,41.2,145.9,41.2,145.9"/>
			<path class="st0" d="M35.7,144.2c0,0-1.1,0.1-2.6-0.1c-0.7-0.1-1.6-0.2-2.5-0.5c-0.9-0.2-1.8-0.6-2.8-1c-1.9-0.6-3.8-1.3-5.2-1.8
				c-1.4-0.5-2.4-0.9-2.4-0.9c0,0-0.1-0.1-0.1-0.1c0,0,0.1,0,0.1,0c0,0,1,0.2,2.5,0.4c1.5,0.3,3.5,0.7,5.4,1.1c1,0.2,2,0.3,2.9,0.6
				c0.9,0.2,1.7,0.6,2.4,0.9c1.4,0.6,2.3,1.2,2.3,1.2C35.8,144.1,35.8,144.1,35.7,144.2C35.7,144.2,35.7,144.2,35.7,144.2"/>
			<path class="st0" d="M61.5,144.1c0.5,0,0.9,0.4,0.9,0.9c0,0.5-0.4,0.9-0.9,0.9c-0.5,0-0.9-0.4-0.9-0.9
				C60.5,144.5,61,144.1,61.5,144.1"/>
			<path class="st0" d="M60.1,145c0-0.1,0-0.1,0-0.2c-1,0.4-1.6,0.7-1.6,0.7s0.7,0.1,1.7,0.2C60.1,145.4,60.1,145.2,60.1,145"/>
			<path class="st0" d="M72.4,142.4c-0.4,0-1,0.1-1.7,0.1c-0.4,0-0.9,0.1-1.4,0.2c-0.2,0.4-0.7,0.7-1.2,0.7c-0.4,0-0.7-0.1-0.9-0.4
				c-0.5,0.1-1,0.2-1.5,0.3c-0.5,0.1-0.9,0.2-1.3,0.3c-0.4,0.1-0.9,0.2-1.3,0.3c-0.2,0-0.4,0.1-0.7,0.2c0.2,0.2,0.4,0.6,0.4,0.9
				c0,0.2,0,0.4-0.2,0.6c0.2,0,0.4,0,0.7,0c0.4,0,0.9,0,1.4-0.1c0.5-0.1,0.9-0.2,1.4-0.3c0.9-0.2,1.9-0.5,2.7-0.7
				c0.3-0.1,0.5-0.2,0.7-0.3l0,0c0-0.7,0.6-1.4,1.4-1.4c0.3,0,0.7,0.1,0.9,0.4c0.9-0.5,1.4-0.9,1.4-0.9S72.8,142.3,72.4,142.4"/>
			<path class="st0" d="M70.8,143.3c0.5,0,0.9,0.4,0.9,0.9c0,0.5-0.4,0.9-0.9,0.9c-0.5,0-0.9-0.4-0.9-0.9
				C69.9,143.7,70.3,143.3,70.8,143.3"/>
			<path class="st0" d="M68.2,141.1c0.5,0,0.9,0.4,0.9,0.9c0,0.5-0.4,0.9-0.9,0.9c-0.5,0-0.9-0.4-0.9-0.9
				C67.2,141.5,67.7,141.1,68.2,141.1"/>
			<path class="st0" d="M77.4,140c0.5,0,0.9,0.4,0.9,0.9c0,0.5-0.4,0.9-0.9,0.9c-0.5,0-0.9-0.4-0.9-0.9
				C76.5,140.4,76.9,140,77.4,140"/>
			<path class="st0" d="M76,141c-1,0.4-1.7,0.8-1.7,0.8s0.7-0.1,1.8-0.2C76.1,141.4,76,141.2,76,141"/>
			<path class="st0" d="M90.6,134.2c0.5,0,0.9,0.4,0.9,0.9c0,0.5-0.4,0.9-0.9,0.9c-0.5,0-0.9-0.4-0.9-0.9
				C89.7,134.6,90.1,134.2,90.6,134.2"/>
			<path class="st0" d="M94.5,135.2c-0.6,0.1-1.5,0.3-2.5,0.5c-0.1,0-0.2,0.1-0.3,0.1c-0.3,0.4-0.7,0.6-1.1,0.6
				c-0.2,0-0.4-0.1-0.6-0.1c-0.4,0.1-0.9,0.2-1.4,0.4c-0.6,0.2-1.2,0.3-1.9,0.5c-0.7,0.2-1.3,0.4-1.9,0.6c-0.7,0.2-1.3,0.4-2,0.6
				c-0.6,0.2-1.2,0.5-1.9,0.7c-0.9,0.3-1.7,0.6-2.5,0.9c0.2,0.2,0.3,0.5,0.3,0.9c0,0.1,0,0.2,0,0.3c0.8-0.1,1.7-0.3,2.6-0.5
				c0.6-0.1,1.3-0.3,1.9-0.5c0.7-0.2,1.3-0.4,2-0.6c1.3-0.4,2.6-0.9,3.8-1.4c1.2-0.5,2.3-1,3.2-1.4c1-0.4,1.7-0.9,2.2-1.2
				c0.5-0.3,0.8-0.5,0.8-0.5S95.1,135.1,94.5,135.2"/>
			<path class="st0" d="M59.2,140.9c0.5,0,0.9,0.4,0.9,0.9c0,0.5-0.4,0.9-0.9,0.9c-0.5,0-0.9-0.4-0.9-0.9
				C58.3,141.3,58.7,140.9,59.2,140.9"/>
			<path class="st0" d="M58.1,142.5c-0.4,0.5-0.7,0.8-0.7,0.8s0.4-0.1,1.1-0.3C58.3,142.8,58.2,142.6,58.1,142.5"/>
			<path class="st0" d="M67.4,136.6c-0.6,0.2-1.4,0.5-2.1,0.8c-0.8,0.3-1.6,0.8-2.3,1.2c-0.4,0.2-0.8,0.5-1.2,0.7
				c-0.4,0.2-0.7,0.5-1.1,0.7c-0.2,0.2-0.5,0.4-0.7,0.6c0.4,0.2,0.6,0.7,0.6,1.2c0,0,0,0.1,0,0.2c0.3-0.2,0.7-0.3,1-0.5
				c0.8-0.4,1.5-0.8,2.3-1.2c0.7-0.4,1.5-0.9,2.2-1.4c0.3-0.2,0.5-0.4,0.8-0.5c0-0.7,0.6-1.3,1.4-1.3c0.1,0,0.2,0,0.3,0.1
				c0.3-0.2,0.5-0.4,0.7-0.6c0.3-0.3,0.5-0.4,0.5-0.4S68.7,136.2,67.4,136.6"/>
			<path class="st0" d="M68.2,137.5c0.5,0,0.9,0.4,0.9,0.9c0,0.5-0.4,0.9-0.9,0.9c-0.5,0-0.9-0.4-0.9-0.9
				C67.2,137.9,67.7,137.5,68.2,137.5"/>
			<path class="st0" d="M76.3,136.7c0.5,0,0.9,0.4,0.9,0.9c0,0.5-0.4,0.9-0.9,0.9c-0.5,0-0.9-0.4-0.9-0.9
				C75.4,137.1,75.8,136.7,76.3,136.7"/>
			<path class="st0" d="M82.1,137.2c-1,0.2-2.3,0.5-3.6,0.8c-0.4,0.1-0.7,0.2-1.1,0.3c-0.2,0.4-0.7,0.6-1.2,0.6
				c-0.2,0-0.4-0.1-0.6-0.2c-0.4,0.1-0.8,0.2-1.2,0.3c-0.7,0.2-1.4,0.4-2,0.7c-0.7,0.2-1.3,0.5-1.9,0.7c-0.5,0.2-1,0.3-1.5,0.5
				c0.3,0.3,0.4,0.6,0.4,1c0,0.1,0,0.2-0.1,0.4c0.5-0.1,1-0.2,1.6-0.3c0.6-0.2,1.3-0.3,2-0.5c0.7-0.2,1.3-0.4,2-0.6
				c0.3-0.1,0.7-0.2,1-0.3c0.2-0.5,0.7-1,1.3-1c0.3,0,0.6,0.1,0.8,0.3c0.3-0.1,0.6-0.2,0.8-0.3c1.3-0.4,2.4-0.9,3.4-1.4
				c2-0.8,3.2-1.6,3.2-1.6S84.2,136.8,82.1,137.2"/>
			<path class="st0" d="M75,137.9c0,0-0.1,0.1-0.1,0.1c-0.3,0.3-0.5,0.5-0.5,0.5s0.2,0,0.7-0.1c0,0,0.1,0,0.2,0
				C75.1,138.3,75,138.1,75,137.9"/>
			<path class="st0" d="M86.6,134.1c0.5,0,0.9,0.4,0.9,0.9c0,0.5-0.4,0.9-0.9,0.9c-0.5,0-0.9-0.4-0.9-0.9
				C85.7,134.5,86.1,134.1,86.6,134.1"/>
			<path class="st0" d="M89.2,135.1C89.2,135.1,89.2,135.1,89.2,135.1c-0.6,0.2-1,0.5-1.5,0.7c-0.2,0.3-0.6,0.6-1.1,0.6c0,0,0,0,0,0
				s1.2-0.1,2.8-0.3c0.1,0,0.1,0,0.1,0C89.4,135.8,89.2,135.5,89.2,135.1"/>
			<path class="st0" d="M84.9,131.2c0.5,0,0.9,0.4,0.9,0.9c0,0.5-0.4,0.9-0.9,0.9c-0.5,0-0.9-0.4-0.9-0.9
				C84,131.7,84.4,131.2,84.9,131.2"/>
			<path class="st0" d="M83.6,132.5c-0.2,0.1-0.3,0.2-0.4,0.3c-0.3,0.3-0.5,0.5-0.5,0.5s0.3,0,0.7-0.1c0.1,0,0.3,0,0.6-0.1
				C83.8,132.9,83.6,132.7,83.6,132.5"/>
			<path class="st0" d="M95.9,126.2c-0.4,0.1-1,0.3-1.7,0.5c-0.4,0.1-0.7,0.3-1.1,0.4c-0.4,0.2-0.8,0.3-1.2,0.5
				c-0.8,0.3-1.7,0.8-2.6,1.2c-0.4,0.2-0.9,0.5-1.3,0.7c-0.5,0.2-0.9,0.5-1.2,0.7c-0.4,0.2-0.8,0.5-1.2,0.7c0.4,0.2,0.7,0.7,0.7,1.2
				c0,0.2,0,0.3-0.1,0.4c0.5-0.1,1-0.3,1.5-0.5c0.4-0.1,0.9-0.3,1.3-0.5c0.5-0.2,0.9-0.5,1.4-0.7c0.9-0.5,1.8-1,2.5-1.5
				c0.8-0.5,1.4-1.1,2-1.6c0.6-0.5,1-0.9,1.3-1.3c0.3-0.3,0.4-0.6,0.4-0.6S96.4,126,95.9,126.2"/>
			<path class="st0" d="M56.7,142.9c-0.1,0-0.1-0.1-0.2-0.1c-0.2,0-0.5,0.2-0.5,0.4l-1.2,2.8c-0.1,0.3,0,0.6,0.3,0.8
				c0.1,0.1,0.6,0.1,1.4,0.1c1.2,0,1.9-0.1,2.1-0.2c0-0.2-0.1-1-0.5-1.8C57.3,143.4,56.9,143,56.7,142.9"/>
			<path class="st0" d="M55.4,143.2c0-0.1-0.2-0.3-0.3-0.3c-0.1,0-0.2-0.1-0.2-0.1c-0.2,0-0.4,0.2-0.5,0.4l-1.2,2.8
				c-0.1,0.3,0,0.6,0.3,0.8c0.3,0.1,0.7,0,0.8-0.3l1.2-2.8C55.4,143.5,55.4,143.4,55.4,143.2"/>
			<path class="st0" d="M53.8,143.2c-0.1-0.1-0.2-0.3-0.3-0.3c-0.1,0-0.2-0.1-0.2-0.1c-0.2,0-0.4,0.2-0.5,0.4l-1.2,2.8
				c-0.1,0.3,0,0.6,0.3,0.8c0.3,0.1,0.7,0,0.8-0.3l1.2-2.8C53.8,143.5,53.8,143.4,53.8,143.2"/>
			<path class="st0" d="M52.1,143.2c0-0.1-0.1-0.3-0.3-0.3c-0.1,0-0.1-0.1-0.2-0.1c-0.2,0-0.4,0.2-0.5,0.4l-1.2,2.8
				c-0.1,0.3,0,0.6,0.3,0.8c0.3,0.1,0.6,0,0.8-0.3l1.2-2.8C52.2,143.5,52.2,143.4,52.1,143.2"/>
			<path class="st0" d="M46.1,147.4c-0.5,0-1.1,0.2-1.8,0.4c-0.3,0.1-0.7,0.1-1,0.3c-0.4,0.1-0.7,0.2-1,0.3c-0.7,0.2-1.4,0.4-2,0.7
				c-0.3,0.1-0.6,0.3-0.9,0.4c-0.3,0.1-0.6,0.2-0.8,0.4c-0.5,0.2-0.9,0.4-1.2,0.6c-0.3,0.1-0.5,0.3-0.5,0.3l-0.2,0.2
				c-0.1,0-0.1,0.1-0.1,0.1c0,0.1,0.1,0.2,0.2,0.2c0.1,0,0.3,0,0.4,0c0.9,0,1.6,0.7,1.6,1.6c0,0.2,0,0.4-0.1,0.5
				c0,0.2,0.1,0.4,0.3,0.3c0.1-0.1,0.1-0.1,0.2-0.2c0,0,0.1-0.1,0.3-0.3c0.2-0.2,0.5-0.5,0.8-0.8c0.2-0.2,0.4-0.3,0.6-0.5
				c0.2-0.2,0.4-0.4,0.7-0.6c0.5-0.4,1-0.8,1.6-1.2c0.3-0.2,0.6-0.4,0.8-0.6c0.3-0.2,0.5-0.4,0.8-0.5c0.5-0.3,1.1-0.7,1.5-0.9
				c0.9-0.5,1.5-0.8,1.5-0.8S47.2,147.2,46.1,147.4"/>
			<path class="st0" d="M62.2,147.4c0.5,0,1.1,0.2,1.8,0.4c0.3,0.1,0.7,0.1,1,0.3c0.3,0.1,0.7,0.2,1,0.3c0.7,0.2,1.4,0.4,2,0.7
				c0.3,0.1,0.6,0.3,0.9,0.4c0.3,0.1,0.6,0.2,0.8,0.4c0.5,0.2,0.9,0.4,1.2,0.6c0.3,0.1,0.5,0.3,0.5,0.3l0.3,0.2
				c0.1,0,0.1,0.1,0.1,0.1c0,0.1-0.1,0.2-0.2,0.2c-0.1,0-0.3,0-0.4,0c-0.9,0-1.6,0.7-1.6,1.6c0,0.2,0,0.4,0.1,0.5
				c0,0.2-0.2,0.4-0.3,0.3c-0.1-0.1-0.1-0.1-0.2-0.2c0,0-0.1-0.1-0.3-0.3c-0.2-0.2-0.5-0.5-0.8-0.8c-0.2-0.2-0.4-0.3-0.6-0.5
				c-0.2-0.2-0.4-0.4-0.7-0.6c-0.5-0.4-1-0.8-1.6-1.2c-0.3-0.2-0.6-0.4-0.8-0.6c-0.3-0.2-0.6-0.4-0.8-0.5c-0.5-0.3-1.1-0.7-1.5-0.9
				c-0.9-0.5-1.5-0.8-1.5-0.8S61.2,147.2,62.2,147.4"/>
			<path class="st0" d="M52.8,147.1c-0.3,0.4-0.9,0.5-1.3,0.3c-0.2-0.1-0.3-0.2-0.4-0.3c-0.3,0.3-0.8,0.5-1.2,0.3
				c-2.3,5.1-3.2,5.7-3.5,6.2c1.6,1.3,0.5,5.2-2.2,5.3c-2.3,0.2-2-3.9-0.1-4.3c0.2-0.1,0.5,0,0.8,0.1c0.9,0.4,0.5,1.4-0.3,1.2
				c-0.9-0.3-1.5,1.1-0.7,1.7c0.9,0.7,2.1-0.5,2.3-2.2c0.1-0.9-0.5-1.3-2-1.5c-1.5-0.2-2.8-0.3-2.8-0.3c-2,1-1.8,3.9-1.2,4.7
				c0.6,0.9,3,1.2,4.2,1c4-0.6,6.4-9.4,8.6-12.1C52.9,147.2,52.8,147.1,52.8,147.1"/>
			<path class="st0" d="M60.5,142.3c0.5,0,0.9,0.4,0.9,0.9c0,0.5-0.4,0.9-0.9,0.9c-0.5,0-0.9-0.4-0.9-0.9
				C59.6,142.7,60,142.3,60.5,142.3"/>
			<path class="st0" d="M59.2,143.6c-0.4,0.3-0.7,0.5-0.7,0.5s0.3,0,0.9-0.1C59.4,143.9,59.3,143.8,59.2,143.6"/>
			<path class="st0" d="M74.9,137.6c-0.4,0-1.4,0.1-2.6,0.4c-0.8,0.1-1.8,0.4-2.8,0.7c0,0,0,0,0,0c-0.1,0.6-0.7,1.1-1.4,1.1
				c-0.4,0-0.7-0.1-0.9-0.3c-0.3,0.1-0.6,0.2-0.9,0.3c-1,0.4-2.1,0.9-3,1.3c-0.7,0.4-1.4,0.8-2,1.1c0.3,0.2,0.5,0.6,0.5,1
				c0,0,0,0.1,0,0.1c0.7-0.2,1.4-0.4,2.2-0.7c0.9-0.3,1.9-0.6,2.8-1c0.2-0.6,0.7-1,1.3-1c0.2,0,0.5,0.1,0.7,0.2
				c0.4-0.2,0.9-0.4,1.3-0.6c1-0.4,1.9-0.8,2.6-1.2c0.7-0.4,1.4-0.7,1.8-1c0.2-0.1,0.3-0.2,0.5-0.3
				C74.9,137.7,74.9,137.7,74.9,137.6"/>
			<path class="st0" d="M85.3,135.1c-0.5,0.3-0.9,0.6-1.2,0.9c-0.5,0.4-0.9,0.7-0.9,0.7s0.4-0.1,1.1-0.2c0.4-0.1,0.9-0.2,1.4-0.4
				C85.5,135.8,85.3,135.4,85.3,135.1"/>
			<path class="st0" d="M87.1,132.9c-0.3,0-0.7,0.1-1.1,0.1c-0.2,0.3-0.6,0.5-1.1,0.5c-0.3,0-0.5-0.1-0.7-0.2
				c-1.1,0.3-2.4,0.7-3.6,1.2c-0.9,0.4-1.7,0.8-2.4,1.1c-0.4,0.2-0.8,0.5-1.2,0.8c0.4,0.2,0.7,0.7,0.7,1.2c0,0.1,0,0.2,0,0.3
				c0,0,0.1,0,0.2,0c0.4-0.1,0.8-0.2,1.2-0.3c0.8-0.2,1.7-0.5,2.5-0.9c1.4-0.6,2.8-1.3,3.9-2c0.2-0.6,0.7-1,1.3-1c0.1,0,0.1,0,0.1,0
				c0.2-0.1,0.3-0.3,0.5-0.4c0.3-0.3,0.5-0.4,0.5-0.4S87.5,132.8,87.1,132.9"/>
			<path class="st0" d="M103.3,123.2c-0.3,0.2-0.6,0.5-1,0.8c-0.4,0.3-0.8,0.6-1.3,0.9c-0.5,0.3-1,0.7-1.6,1.1
				c-0.6,0.3-1.1,0.8-1.8,1.1c-1.2,0.8-2.6,1.7-3.9,2.5c-1.3,0.8-2.7,1.7-3.9,2.5c-0.6,0.4-1.2,0.8-1.8,1.2
				c-0.3,0.2-0.6,0.4-0.9,0.6c0.5,0.2,0.8,0.7,0.8,1.2c0,0.1,0,0.1,0,0.2c0.3-0.1,0.6-0.2,0.9-0.4c0.1,0,0.2-0.1,0.4-0.2
				c0.2-0.5,0.7-0.9,1.3-0.9c0.2,0,0.4,0,0.5,0.1c0.6-0.3,1.3-0.6,1.9-1c0.7-0.4,1.4-0.8,2.1-1.2c0.7-0.4,1.4-0.9,2-1.4
				c0.6-0.4,1.3-1,1.9-1.4c0.6-0.5,1.1-1,1.6-1.5c0.5-0.5,1-1,1.4-1.5c0.4-0.4,0.7-1,1-1.3c0.3-0.4,0.5-0.8,0.7-1.1
				c0.3-0.6,0.5-1,0.5-1S103.9,122.7,103.3,123.2"/>
			<path class="st0" d="M60.1,26.3c0,0.5-0.3,0.9-0.6,0.9H49c-0.3,0-0.6-0.4-0.6-0.9c0-0.5,0.3-0.9,0.6-0.9h10.6
				C59.9,25.4,60.1,25.9,60.1,26.3"/>
			<path class="st1" d="M54.2,35.8H26v68.7c0,13.4,22.5,4.9,28.3,14.5c5.7-9.6,28.2-1.1,28.2-14.5V35.8H54.2z M65.9,39.1l0.6-1.8
				l0.6,1.8h1.8l-1.5,1.1l0.6,1.8l-1.5-1.1l-1.5,1.1l0.6-1.8L64,39.1H65.9z M53.7,39.1l0.6-1.8l0.6,1.8h1.8l-1.5,1.1l0.6,1.8
				l-1.5-1.1l-1.5,1.1l0.6-1.8l-1.5-1.1H53.7z M41.5,39.1l0.6-1.8l0.6,1.8h1.9L43,40.2l0.6,1.8l-1.5-1.1l-1.5,1.1l0.6-1.8l-1.5-1.1
				H41.5z M29.1,39.1l0.6-1.8l0.6,1.8h1.9l-1.5,1.1l0.6,1.8l-1.5-1.1l-1.5,1.1l0.6-1.8l-1.5-1.1H29.1z M29.1,56.3l0.6-1.7l0.6,1.7
				h1.9l-1.5,1.1l0.6,1.8l-1.5-1.1l-1.5,1.1l0.6-1.8l-1.5-1.1H29.1z M29.1,72.9l0.6-1.8l0.6,1.8h1.9l-1.5,1.1l0.6,1.7l-1.5-1.1
				l-1.5,1.1l0.6-1.7l-1.5-1.1H29.1z M27.3,89.4h1.8l0.6-1.8l0.6,1.8h1.9l-1.5,1.1l0.6,1.8l-1.5-1.1l-1.5,1.1l0.6-1.8L27.3,89.4z
				 M33,109.2l-1.5-1.1l-1.5,1.1l0.6-1.8l-1.5-1.1h1.8l0.6-1.8l0.6,1.8h1.8l-1.5,1.1L33,109.2z M44.1,111.8l-1.5-1.1l-1.5,1.1
				l0.6-1.8l-1.5-1.1H42l0.6-1.8l0.5,1.8H45l-1.5,1.1L44.1,111.8z M55.8,115.1l-1.5-1.1l-1.5,1.1l0.6-1.7l-1.5-1.1h1.8l0.6-1.7
				l0.6,1.7h1.8l-1.5,1.1L55.8,115.1z M67.5,111.8l-1.5-1.1l-1.5,1.1l0.6-1.8l-1.5-1.1h1.9l0.6-1.8l0.6,1.8h1.9L67,110L67.5,111.8z
				 M66.2,105.6c-4.2,0.4-8.9,0.9-11.7,2.7l-0.3,0.2l-0.2-0.2c-2.8-1.8-7.6-2.3-11.7-2.7c-5-0.5-9.2-1-9.2-3.6V43.6h42.4v58.4
				C75.4,104.6,71.2,105.1,66.2,105.6 M78.7,109.2l-1.5-1.1l-1.5,1.1l0.6-1.8l-1.5-1.1h1.8l0.6-1.8l0.6,1.8h1.9l-1.5,1.1L78.7,109.2
				z M80.5,92.2L79,91.1l-1.5,1.1l0.6-1.8l-1.5-1.1h1.8l0.6-1.8l0.6,1.8h1.8l-1.5,1.1L80.5,92.2z M79.9,73.9l0.6,1.7L79,74.6
				l-1.5,1.1l0.6-1.7l-1.5-1.1h1.8l0.6-1.8l0.6,1.8h1.8L79.9,73.9z M79.9,57.4l0.6,1.8L79,58.1l-1.5,1.1l0.6-1.8l-1.5-1.1h1.8
				l0.6-1.7l0.6,1.7h1.8L79.9,57.4z M79.9,40.2l0.6,1.8L79,40.8l-1.5,1.1l0.6-1.8l-1.5-1.1h1.8l0.6-1.8l0.6,1.8h1.8L79.9,40.2z"/>
			<path class="st1" d="M19.3,105c1.1-0.3,2.1,0.3,2.7,1.1c1.1-4,1.9-8.3,2.7-11.7c0.5-1.3-3.9-2.6-3.7-1.3
				C21.5,96.9,20.3,101,19.3,105"/>
			<path class="st1" d="M20.9,107.7c1.3-1.9-1.9-2.1-2.9-1.3c0.5-2.1,1.3-4.5,1.9-6.7c-3.7,1.3-7.5,3.5-8.3,5.1
				c-0.8,1.3-1.9,5.4-2.9,9.9C11.8,111.9,18.7,111.4,20.9,107.7"/>
			<path class="st1" d="M14.5,123.4c-0.6-1-1.7-6.2,0.9-10.9c-3.2,0.9-4.5,1.7-5,2c-2.1,1.1-2.6,2.5-2.6,3.6c0,2.1,2.4,4.5,4.5,5.9
				c0.3,0.3,6.4,3.5,6.4,1.9C18.7,124.2,15.6,125.1,14.5,123.4"/>
			<path class="st1" d="M39.8,126.8c-0.7-0.5-1.1-0.5-1.1-0.3c-0.3,1,0.2,1.7,0.2,1.7s0.6,0.2,1.2-0.1
				C40.4,127.8,40.6,127.3,39.8,126.8"/>
			<path class="st1" d="M86.5,106.1c0.5-0.8,1.6-1.3,2.7-1.1c-1.1-4-2.3-8.1-1.6-12c0.2-1.3-4.3,0-3.7,1.3
				C84.6,97.8,85.5,102.1,86.5,106.1"/>
			<path class="st1" d="M87.6,107.7c2.1,3.7,9.1,4.3,12.3,6.9c-1.1-4.5-2.1-8.5-2.9-9.9c-0.8-1.6-4.5-3.7-8.3-5.1
				c0.5,2.1,1.3,4.5,1.9,6.7C89.4,105.5,86.2,105.8,87.6,107.7"/>
			<path class="st1" d="M98,114.5c-0.5-0.2-1.8-1.1-5-2c2.6,4.7,1.6,9.9,0.9,10.9c-1.1,1.7-4.3,0.8-4.3,2.4c0,1.6,6.1-1.6,6.4-1.9
				c2.1-1.3,4.5-3.7,4.5-5.9C100.6,117,100.1,115.6,98,114.5"/>
			<path class="st1" d="M92.8,123.4c0.9-0.6,0.3-1.4-0.3-1.3c-0.6,0.1-1.6,0.5-2.6,1.1c-0.2,0.4-0.2,1.6-0.2,1.6
				C90.1,124,91.9,124,92.8,123.4"/>
			<path class="st1" d="M68.6,126.8c-0.8,0.5-0.6,1-0.2,1.3c0.5,0.3,1.1,0.1,1.1,0.1s0.4-0.8,0.2-1.7
				C69.7,126.3,69.4,126.3,68.6,126.8"/>
			<path class="st0" d="M75.9,18.3c0,0-1.9,4.3-5,5.3c0.3-0.4,1-1.2,0.2-1.7c-0.8,1.5-3.2,2.6-4.2,2.4c-1.2-0.2-1.1-1.3-0.4-1.3
				c0.9,0,1.1-0.3,1.1-0.9c0-0.5-0.5-1.8-2.2-0.6c0-0.3-0.6-0.7-0.7-0.5c0.1,0.5,0.1,0.9,0,1.2c0.6,0.7,1.2,1.6,1.3,2.7
				c0,0.1,0,0.2,0,0.2C77.6,25.4,75.9,18.3,75.9,18.3"/>
			<path class="st0" d="M42.5,25c0.1-1.1,0.6-2,1.2-2.6c-0.1-0.4-0.1-0.9,0-1.5c-0.1-0.2-0.8,0.4-0.8,0.7c-1.7-1.2-2.2,0.1-2.2,0.6
				c0,0.5,0.2,0.9,1.1,0.9c0.8,0,0.8,1.1-0.4,1.3c-1,0.2-3.5-0.9-4.2-2.4c-0.8,0.5-0.1,1.3,0.2,1.7c-3.2-1-5-5.3-5-5.3
				s-1.7,7.2,10,6.9C42.5,25.1,42.5,25.1,42.5,25"/>
			<path class="st1" d="M92.9,114.5c0,0-2.2-2.1-11.1,0.5c-8.7,2.5-10.5,3.9-10.5,3.9v7.1c0,0.3-0.2,0.5-0.7,0.9
				c0,0.3-0.1,0.7-0.2,1c1.8-0.8,6.7-3.4,12.1-5c9.4-2.8,10.8-1.6,11-1.5C93.9,117.5,92.9,114.5,92.9,114.5 M73.4,124.6
				c-0.5,0.2-0.8,0.1-0.9-0.5c0-0.1,0-0.1,0-0.2c0.2-0.1,0.3-0.1,0.5-0.2c0,0.1,0,0.1,0,0.2c0,0.3,0.2,0.3,0.4,0.2
				c0.2-0.1,0.3-0.3,0.3-0.5c-0.2-1.2-0.4-2.3-0.7-3.4c0.1-0.1,0.3-0.1,0.4-0.2c0.3,1.1,0.5,2.3,0.7,3.4
				C74.2,124,73.9,124.4,73.4,124.6 M75.2,123.9c-0.5,0.2-0.8,0-0.9-0.6c-0.2-1.2-0.4-2.3-0.7-3.5c0.2-0.1,0.3-0.1,0.4-0.2
				c0.3,1.1,0.5,2.3,0.7,3.5c0,0.3,0.2,0.3,0.4,0.3c0.2-0.1,0.3-0.2,0.2-0.5c-0.2-1.2-0.5-2.4-0.7-3.5c0.1-0.1,0.3-0.1,0.4-0.2
				c0.3,1.2,0.5,2.3,0.8,3.5C75.9,123.3,75.7,123.7,75.2,123.9 M76.9,123.2c-0.5,0.2-0.8,0-0.9-0.6c0-0.2,0-0.4-0.1-0.5
				c0.2-0.1,0.3-0.1,0.4-0.2c0,0.2,0.1,0.3,0.1,0.5c0.1,0.2,0.2,0.3,0.4,0.2c0.2-0.1,0.3-0.2,0.2-0.5c0-0.2-0.1-0.4-0.1-0.5
				c0-0.2-0.3-0.4-0.7-0.6c-0.4-0.1-0.6-0.4-0.7-0.8c0-0.1-0.1-0.3-0.1-0.4c-0.1-0.6,0-1,0.5-1.2c0.5-0.2,0.7,0,0.9,0.6
				c0.1,0.2,0.1,0.4,0.1,0.5c-0.1,0.1-0.3,0.1-0.4,0.2c0-0.2-0.1-0.3-0.2-0.5c0-0.2-0.2-0.3-0.4-0.2c-0.2,0.1-0.2,0.2-0.2,0.5
				c0,0.1,0.1,0.3,0.1,0.4c0.1,0.2,0.3,0.4,0.7,0.6c0.4,0.1,0.6,0.4,0.7,0.8c0,0.2,0.1,0.4,0.1,0.6
				C77.6,122.7,77.4,123.1,76.9,123.2 M78.2,122.7c-0.3-1.3-0.6-2.6-0.9-3.9c-0.2,0.1-0.3,0.1-0.5,0.2c-0.1-0.2-0.1-0.3-0.1-0.5
				c0.4-0.2,0.9-0.4,1.3-0.5c0.1,0.2,0.1,0.3,0.1,0.5c-0.1,0.1-0.3,0.1-0.4,0.2c0.3,1.3,0.7,2.6,0.9,3.9
				C78.5,122.6,78.4,122.6,78.2,122.7 M79.2,122.3c-0.3-1.5-0.7-3-1.1-4.4c0.1,0,0.3-0.1,0.4-0.2c0.4,1.5,0.8,2.9,1.1,4.4
				C79.5,122.2,79.4,122.3,79.2,122.3 M80.6,122c-0.4,0.1-0.8-0.1-0.9-0.7c-0.2-0.9-0.5-1.9-0.7-2.8c-0.2-0.6,0-1,0.4-1.1
				c0.4-0.2,0.7,0.1,0.9,0.7c0.1,0.2,0.1,0.4,0.1,0.5c-0.1,0.1-0.2,0.1-0.4,0.1c-0.1-0.2-0.1-0.4-0.1-0.5c-0.1-0.2-0.2-0.3-0.4-0.3
				l0,0c-0.2,0.1-0.2,0.2-0.2,0.5c0.3,0.9,0.5,1.9,0.7,2.8c0.1,0.2,0.2,0.3,0.4,0.3c0.2-0.1,0.3-0.2,0.2-0.5c0-0.2-0.1-0.4-0.1-0.5
				c0.1-0.1,0.3-0.1,0.4-0.1c0,0.2,0.1,0.4,0.2,0.5C81.2,121.4,81.1,121.8,80.6,122 M81.5,121.6c-0.4-1.5-0.8-3-1.2-4.5
				c0.1,0,0.3-0.1,0.4-0.1c0.4,1.5,0.8,3,1.2,4.5C81.8,121.5,81.6,121.5,81.5,121.6 M83.2,121.1c-0.1-0.3-0.2-0.6-0.4-1
				c-0.2,0-0.4,0.1-0.6,0.2c0.1,0.3,0.1,0.7,0.2,1c-0.2,0-0.3,0.1-0.4,0.1c-0.1-0.5-0.2-1.1-0.3-1.6c-0.1-1-0.3-2-0.4-3
				c0.2-0.1,0.4-0.1,0.6-0.2c0.4,0.9,0.7,1.9,1.1,2.8c0.2,0.5,0.4,1,0.6,1.5C83.5,121,83.4,121.1,83.2,121.1 M85.1,120.7
				c-0.5,0.1-0.8-0.2-0.9-0.8c0-0.2-0.1-0.4-0.1-0.6c0.1,0,0.3-0.1,0.4-0.1c0.1,0.2,0.1,0.4,0.2,0.6c0.1,0.2,0.2,0.3,0.4,0.3
				c0.2,0,0.2-0.2,0.2-0.4c0-0.2-0.1-0.4-0.1-0.5c-0.1-0.2-0.3-0.5-0.7-0.7c-0.4-0.2-0.6-0.5-0.7-0.9c0-0.1-0.1-0.3-0.1-0.4
				c-0.1-0.6,0-1,0.4-1.1c0.5-0.1,0.7,0.2,0.9,0.8c0,0.2,0.1,0.4,0.1,0.6c-0.1,0-0.3,0-0.4,0.1c0-0.2-0.1-0.4-0.1-0.6
				c-0.1-0.2-0.2-0.3-0.4-0.3h0c-0.2,0-0.2,0.2-0.1,0.4c0,0.1,0,0.3,0.1,0.4c0.1,0.2,0.3,0.5,0.7,0.7c0.4,0.2,0.6,0.5,0.7,0.9
				c0.1,0.2,0.1,0.4,0.2,0.6C85.7,120.3,85.5,120.7,85.1,120.7 M86.6,120.5c-0.5,0.1-0.8-0.2-0.9-0.8c-0.3-0.9-0.5-1.9-0.7-2.8
				c-0.2-0.6,0-0.9,0.5-1c0.4-0.1,0.7,0.2,0.9,0.8c0.2,0.9,0.5,1.9,0.8,2.8C87.2,120.1,87.1,120.4,86.6,120.5 M88.2,120.3
				c-0.4,0.1-0.8-0.2-0.9-0.8c-0.3-0.9-0.5-1.9-0.8-2.8c-0.2-0.6,0-0.9,0.5-1c0.5,0,0.8,0.3,0.9,0.8c0,0.2,0.1,0.4,0.1,0.6
				c-0.1,0-0.3,0-0.4,0c0-0.2-0.1-0.4-0.1-0.5c-0.1-0.2-0.2-0.4-0.4-0.4l0,0c-0.2,0-0.3,0.2-0.2,0.4c0.2,0.9,0.5,1.9,0.7,2.8
				c0.1,0.2,0.2,0.4,0.4,0.3c0.2,0,0.2-0.1,0.2-0.4c-0.1-0.2-0.1-0.4-0.2-0.5c0.1,0,0.3,0,0.4,0c0,0.2,0.1,0.4,0.1,0.6
				C88.8,119.9,88.6,120.2,88.2,120.3 M89.1,120.1c-0.5-1.5-0.8-2.9-1.2-4.4c0.1,0,0.3,0,0.4,0c0.3,1.5,0.7,2.9,1.2,4.4
				C89.3,120.1,89.2,120.1,89.1,120.1 M90.9,120c-0.1-0.3-0.3-0.6-0.4-0.9c-0.2,0-0.4,0-0.6,0c0.1,0.3,0.1,0.6,0.2,0.9
				c-0.1,0-0.3,0-0.4,0c-0.1-0.5-0.2-1-0.3-1.5c-0.1-1-0.3-1.9-0.3-2.9h0.6c0.3,0.9,0.7,1.9,1,2.8c0.2,0.5,0.4,1,0.6,1.5
				C91.1,120,91,120,90.9,120 M91.4,120c-0.5-1.4-0.9-2.8-1.1-4.3c0.1,0,0.3,0,0.4,0c0.2,1.3,0.6,2.5,1,3.8c0.3,0,0.6,0,0.9,0
				c0.1,0.2,0.1,0.3,0.2,0.5C92.2,119.9,91.8,119.9,91.4,120"/>
			<path class="st1" d="M89.7,118.6c0.2,0,0.3,0,0.5,0c-0.3-0.8-0.6-1.6-0.9-2.5C89.5,116.9,89.6,117.7,89.7,118.6"/>
			<path class="st1" d="M82.2,119.8c0.2,0,0.3-0.1,0.5-0.1c-0.3-0.8-0.6-1.7-0.9-2.5C81.9,118,82,118.9,82.2,119.8"/>
			<path class="st1" d="M15.9,122.1c0.6,0.1,1.6,0.5,2.7,1.1c0.2,0.4,0.1,1.6,0.1,1.6c-0.4-0.7-2.1-0.7-3.1-1.3
				C14.7,122.8,15.3,122,15.9,122.1 M22.8,116.7c0.1-0.2,0-0.4-0.3-0.4c-0.1,0-0.2,0-0.3,0c-0.1,0.5-0.2,1-0.3,1.4
				c0.1,0,0.1,0,0.2,0c0.1,0,0.2,0,0.2,0c0.2,0,0.3-0.1,0.3-0.3C22.7,117.1,22.7,116.9,22.8,116.7 M26.5,117
				c-0.1-0.1-0.2-0.1-0.4-0.1c-0.3,1.2-0.6,2.3-0.9,3.5c0.1,0,0.2,0.1,0.3,0.1c0.2,0.1,0.4,0,0.4-0.3c0.2-0.9,0.5-1.8,0.8-2.7
				C26.8,117.2,26.7,117.1,26.5,117 M33.2,119.4L33.2,119.4c-0.2-0.1-0.4,0-0.5,0.2c-0.3,1-0.5,1.9-0.7,2.9
				c-0.1,0.3,0.1,0.4,0.3,0.5c0.2,0.1,0.4,0,0.4-0.2c0.2-1,0.4-1.9,0.7-2.9C33.5,119.7,33.4,119.6,33.2,119.4 M37.9,126.9
				c0,0.3,0.1,0.7,0.2,1c-1.8-0.8-6.7-3.4-12.1-5c-9.4-2.8-10.7-1.6-11-1.5c-0.4-4.1,0.6-7,0.6-7s2.2-2.1,11.1,0.5
				c8.8,2.5,10.5,3.9,10.5,3.9v7.1C37.2,126.4,37.5,126.6,37.9,126.9 M18.1,119.5c0.2,0,0.3,0,0.5,0.1c0.4-1.3,0.6-2.7,0.8-4.1h-0.6
				c0,0.6-0.1,1.2-0.2,1.8c-0.2,0-0.5,0-0.7,0c0.1-0.6,0.2-1.2,0.2-1.8c-0.2,0-0.4,0-0.6,0c-0.1,1.3-0.3,2.6-0.6,3.9
				c0.2,0,0.4,0,0.5,0c0.2-0.6,0.3-1.1,0.4-1.7c0.2,0,0.5,0,0.7,0C18.4,118.4,18.3,119,18.1,119.5 M20.5,119.9
				c0.1-0.1,0.1-0.3,0.2-0.5c-0.3-0.1-0.7-0.1-1.1-0.2c0.1-0.5,0.2-0.9,0.3-1.3c0.3,0,0.6,0,0.9,0.1c0-0.2,0.1-0.3,0.1-0.5
				c-0.3,0-0.6-0.1-0.9-0.1c0.1-0.5,0.2-0.9,0.2-1.4c0.4,0,0.7,0.1,1.1,0.1c0-0.1,0.1-0.3,0.1-0.5c-0.6-0.1-1.1-0.1-1.7-0.1
				c-0.2,1.4-0.4,2.8-0.8,4.1C19.5,119.7,20,119.8,20.5,119.9 M22,120.2c0.2,0,0.4,0.1,0.6,0.1c0-0.7-0.1-1.5-0.2-2.2
				c0.4-0.1,0.6-0.3,0.7-0.6c0-0.2,0.1-0.5,0.1-0.7c0.1-0.6-0.1-0.9-0.6-1c-0.3,0-0.6-0.1-0.9-0.1c-0.3,1.5-0.6,2.9-1,4.3
				c0.2,0,0.4,0.1,0.5,0.1c0.2-0.6,0.3-1.3,0.5-1.9c0.1,0,0.1,0,0.2,0C22,118.8,22,119.5,22,120.2 M24.3,120.7
				c0-0.2,0.1-0.3,0.2-0.5c-0.4-0.1-0.7-0.2-1-0.2c0.1-0.5,0.3-1,0.4-1.4c0.3,0.1,0.6,0.1,0.9,0.2c0.1-0.2,0.1-0.3,0.1-0.5
				c-0.3-0.1-0.6-0.1-0.9-0.2c0.1-0.5,0.3-1,0.4-1.4c0.4,0.1,0.7,0.1,1.1,0.2c0-0.2,0.1-0.4,0.1-0.5c-0.5-0.1-1.1-0.2-1.6-0.3
				c-0.4,1.5-0.7,3-1.1,4.4C23.3,120.4,23.8,120.6,24.3,120.7 M25.4,121c0.5,0.2,0.9,0,1.1-0.7c0.3-0.9,0.5-1.8,0.8-2.7
				c0.2-0.6,0-1-0.5-1.1c-0.3-0.1-0.6-0.2-1-0.2c-0.4,1.5-0.8,3-1.2,4.5C24.8,120.8,25.1,120.9,25.4,121 M30.5,122.8
				c0.2,0.1,0.3,0.1,0.5,0.2c0.3-1.5,0.7-3.1,1.2-4.6c-0.2,0-0.3-0.1-0.5-0.2c-0.7,1.1-1.2,2.1-1.8,3.2c0-1.3,0.1-2.5,0.2-3.8
				c-0.2-0.1-0.4-0.1-0.5-0.2c-0.5,1.5-0.9,3.1-1.3,4.6c0.1,0.1,0.3,0.1,0.5,0.2c0.3-1.1,0.5-2.2,0.8-3.2c-0.1,1.2-0.1,2.3-0.2,3.5
				c0.1,0.1,0.2,0.1,0.3,0.1c0.5-1,1-2,1.5-3C31,120.7,30.7,121.8,30.5,122.8 M32.2,123.7c0.6,0.3,1,0.1,1.1-0.5
				c0.2-1,0.4-1.9,0.7-2.9c0.2-0.6,0-1-0.6-1.3c-0.6-0.3-0.9-0.1-1.1,0.5c-0.3,1-0.5,2-0.7,2.9C31.3,123,31.6,123.4,32.2,123.7
				 M35.9,121.2c0.1-0.6-0.1-1.1-0.6-1.4c-0.6-0.3-0.9-0.1-1.1,0.5c-0.1,0.2-0.1,0.3-0.1,0.5c-0.1,0.4,0,0.8,0.4,1.3
				c0.4,0.5,0.6,0.9,0.5,1.2c0,0.2-0.1,0.4-0.1,0.5c-0.1,0.3-0.2,0.3-0.5,0.2c-0.2-0.1-0.4-0.3-0.3-0.6c0-0.2,0.1-0.4,0.1-0.6
				c-0.2-0.1-0.4-0.2-0.5-0.2c0,0.2-0.1,0.4-0.1,0.6c-0.1,0.6,0.2,1.1,0.8,1.3c0.6,0.3,1,0.1,1.1-0.5c0-0.2,0.1-0.4,0.1-0.6
				c0-0.4-0.1-0.8-0.5-1.3c-0.4-0.5-0.5-0.9-0.5-1.1c0-0.1,0.1-0.3,0.1-0.4c0.1-0.3,0.2-0.3,0.5-0.2c0.2,0.1,0.3,0.3,0.2,0.6
				c0,0.2-0.1,0.4-0.1,0.6c0.2,0.1,0.3,0.2,0.5,0.3C35.8,121.6,35.9,121.4,35.9,121.2 M26.7,121.4c0.2-0.3,0.3-0.6,0.5-0.9
				c0.2,0.1,0.5,0.1,0.7,0.2c-0.1,0.3-0.1,0.7-0.2,1c0.2,0.1,0.3,0.1,0.4,0.2c0.1-0.5,0.2-1.1,0.3-1.6c0.2-1,0.4-2,0.6-3
				c-0.2-0.1-0.4-0.1-0.7-0.2c-0.4,0.9-0.9,1.8-1.3,2.8c-0.2,0.5-0.5,1-0.7,1.5C26.4,121.3,26.5,121.4,26.7,121.4 M27.9,120.2
				c0.2-0.9,0.3-1.7,0.5-2.6c-0.4,0.8-0.7,1.6-1.1,2.4C27.5,120,27.7,120.1,27.9,120.2"/>
			<path class="st1" d="M85.9,116.7c-0.1-0.2-0.2-0.4-0.4-0.4c-0.2,0-0.2,0.2-0.2,0.4c0.2,1,0.5,1.9,0.8,2.8
				c0.1,0.2,0.2,0.4,0.4,0.3c0.2,0,0.3-0.2,0.2-0.4C86.4,118.6,86.1,117.7,85.9,116.7"/>
			<path class="st0" d="M50.5,47"/>
			<path class="st0" d="M46.9,52.7c0.4,0.1,0.7,0.3,0.8,0.4c0.8-0.7,1.1-1.4,1.1-1.4c0-0.3,0-0.5,0-0.5c0-0.1,0.1-1.7,0.4-2.5
				c0.2-0.5,0.7-1.2,1-1.7c0,0-0.1,0.1-0.1,0.1L49,47.6c0,0-0.8,0.2-1.1,0.7c-1.6,1.2-2.3,2.9-2.3,2.9s-0.3,0.9-0.7,1.3
				C45.8,52.3,46.4,52.6,46.9,52.7"/>
			<path class="st0" d="M50.5,47.8c0,0,0.2-0.1,0.4-0.2c0.1-0.1,0.5-0.1,0.5-0.1s0.3-0.1,0.4-0.2c0.1-0.1,0.1-0.2,0.1-0.2
				s-0.2-0.1-0.3-0.2c0,0,0.3-0.7,0.2-0.9c-0.1-0.1-0.7,0.3-1.2,0.7C50.4,47,50,47.5,49.7,48C50.2,47.7,50.5,47.8,50.5,47.8"/>
			<path class="st0" d="M52,48.3c-0.2-0.1-1.1,0-1.1,0c0.7-0.3,0.7-0.6,0.7-0.6L51,48.1l-0.5-0.2c-0.3-0.1-0.6,0.1-0.8,0.2
				c-0.1,0.2-0.2,0.4-0.3,0.6c-0.2,0.7-0.4,1.9-0.4,2.2c0.2-0.3,0.6-0.5,1-0.4c0,0,0.7-0.1,1.4,0.3l0.2-0.5c0,0,0.7-0.1,0.5-1.1
				c0.3-0.5,0.2-1,0.2-1s0.4-0.1,0.5-1.3c-0.2,0-0.5,0.3-0.6,0.5c-0.3-0.1-0.3,0-0.3,0S52.1,47.9,52,48.3 M50.1,48.6
				c-0.1,0-0.2,0-0.3-0.1c0-0.1,0.1-0.2,0.2-0.2c0.1,0,0.2,0,0.3,0.1C50.3,48.5,50.2,48.6,50.1,48.6"/>
			<path class="st0" d="M49,51.5c0,0.4-0.1,1.1,0.1,1.7c0.1,0,0.2-0.1,0.3,0c0.2,0.1,0.4,0.1,0.5,0c0.1,0,1-0.4,1.1-0.8
				c0.1-0.4,0.3-1.4,0.3-1.4l0-0.1c-0.7-0.2-1.3-0.2-1.3-0.2C49.5,50.7,49,51.4,49,51.5 M50.1,52c-0.1,0.2-0.2,0.3-0.4,0.3
				c-0.2-0.1-0.2-0.2-0.2-0.4c0.1-0.2,0.2-0.3,0.4-0.3C50.1,51.6,50.1,51.8,50.1,52"/>
			<path class="st0" d="M47,64.7L47,64.7L47,64.7z"/>
			<path class="st0" d="M47,64.7C47,64.7,47,64.7,47,64.7"/>
			<path class="st0" d="M53.8,75.5V70l-8.7-2.7v-0.5l8.7,2.7v-2.6l-4-1.3c0,0-0.4-0.7-1-0.8c-0.4,0-0.6-0.5-0.6-0.5s1.4-1.3,1.4-1.6
				c0-0.2-0.2-0.7-1-0.1c-0.2-0.1-0.3-0.5-0.3-0.5s0-0.6,0.2-1.3c0.7-0.4,1.7-1.7,1.7-1.7s0.6-1.7,0.8-1.4c0.1,0.2,0.4,0.5,0.4,0.8
				c0,0.2,0,0.7,0.5,0.8c0.1,0.3-0.3,0.6-0.3,0.6s-0.2,1-0.1,1.2c0.2,0.2,1.8,0.5,1.9,0.4c0.1-0.1-0.1-1.4-0.3-1.7
				c-0.1-0.1-0.3-1-0.3-1s0.1-0.6-0.3-0.8c-0.3-0.2-0.4-0.4-0.6-1.1c-0.2-0.5-0.7-0.9-1.1-0.9c-0.6,0.1-0.6,0.8-1.1,1.1
				c0-0.2-0.3-1.3-0.3-1.3l-0.8-0.9c0,0-0.2-0.3-0.2-0.5c0-0.2,0.5-1.1,0.5-1.1s0-0.8,0-1.2c-0.2,0.3-0.4,0.7-1,1.1l-0.1-0.1l0,0
				c0,0-1.1-0.8-2.9-0.5l-0.1,0v-0.2c-0.4-0.6-1-0.8-1-0.8l0-0.4c0,0-0.2,0.1-0.4,0c-0.1,0-0.4-0.4-0.7-0.4c-0.2,0-0.5,0.2-0.8,0.6
				C41.5,52,42,51.2,42,51c0,0-0.1-0.2-0.1-0.3c0.1,0,0.3-0.1,0.4,0c0,0,0.3,0.2,1.2,0h0.1c0,0-0.1,0-0.1,0c0-0.1-0.2-0.2-0.3-0.1
				c-0.2,0.1,0-0.2,0.2-0.2c0.2,0-0.3-0.2-0.5,0.1c0,0-0.1-0.3,0.5-0.3c0,0,0-0.2,0-0.2c0,0-0.1-0.1-0.2,0.1c0,0-0.1-0.1,0.1-0.1
				c0.1,0,0.1-0.1,0.2-0.1c0,0,0.2,0.3,0.3,0.4c0.1,0.1,0.1,0.1,0.1,0.1c0-0.1,0-0.2,0-0.3c-0.2,0-0.2-0.2-0.2-0.2
				c0-0.1-0.3-0.1-0.3-0.1c-0.1,0-0.1-0.2-0.1-0.2c0.2-0.1,0.4,0.1,0.4,0.1c0.1,0.1,0.1,0.1,0.1,0.2c0-0.1,0-0.3-0.1-0.4
				c-0.2-0.4-0.8-1-1.7-0.4c-0.3,0.2-0.4,0.5-0.5,0.8c0.2-0.4,0.8-0.4,0.8-0.4c-0.5,0.1-0.8,0.6-0.8,0.6c0,0.3,0.2,0.6,0.2,0.6
				c0,0.3-0.3,0.4-0.5,0.7c-0.8-0.2-1.4,0-1.5,0.2c-0.2,0.2-0.4,0.4-0.4,0.4s-0.8,1.1-1.3,1.5c-0.3,0.1-0.5,0.4-0.5,0.4
				s-1.3,0.7-1.4,0.5c0-0.1,0-0.5,0-0.7c0-0.2-0.2-0.3-0.3-0.1c-0.1,0.2,0,0.7,0,0.7s-0.8-0.2-1-0.2c-0.2,0-0.2,0.1-0.2,0.1v0v0
				c0,0.1,0.1,0.2,0.5,0.3c0,0.7,0.7,1,0.7,1s0.2,0.5,0.5,0.4c0.3,0,0.7-0.4,0.7-0.4s0.3-0.1,0.5-0.1c0.7-0.2,2.3-2,2.5-1.9
				c0.1,0.3,0.3,0.7,0.4,1.6c-0.7,0.4-1.4,2.3-1.4,2.3s-0.4,0.8-0.5,1.4c-0.1,0.5-1.3,1.1-1.3,1.3c-0.1,0.2,0.4,0.7,0.4,0.7L37.5,62
				c0,0-0.2,1.4-0.3,1.9c-0.1,0.5-0.3,1-0.3,1l0.3-0.2l0.2,0.9c0,0,0.1,0.4,0.3,0.6c-0.1,0.3,0,1.5-0.1,1.7
				c-0.3,0.5-0.4,1.1-0.4,1.1s-0.2,0.4,0.1,0.9c0.3,0.4,0.2,1.2,0.2,1.2l0,0.2l-2.8,2.3V74l10.1-8.1l0,0.7l-10.1,8.2v0.8h9.7v-7.7
				l0.4-0.4v8H53.8z M42.8,49.6c0.2,0,0.3,0.1,0.4,0.1c0,0-0.1,0.2-0.1,0.2c0,0-0.1-0.1-0.1-0.1c0,0-0.3-0.2-0.3,0.1
				c0,0-0.1,0-0.2,0C42.5,49.8,42.6,49.6,42.8,49.6 M40,69.2l0.2-1.3c0,0-0.3-1.2-0.2-1.2c0.4,0.8,1.2,1.1,1.2,1.1l0,0.3L40,69.2z
				 M43.6,59.5c0.2-0.2,3.3,4.2,3.3,4.2s0.2,1,0.7,1.2L47,64.7l-0.3-0.1L46,65.1l-0.4-0.2l-0.4,0.4l-0.2,0c0,0,0.5-0.3,0.3-0.9
				c0.2-0.3,0.5-0.9,0.9-1.3C46.2,63.1,43.4,59.7,43.6,59.5"/>
			<path class="st1" d="M51,124c-0.1,0-0.2,0-0.3-0.1v3.7c0.1,0,0.2,0,0.3,0c0.2,0,0.3-0.1,0.3-0.4c0-1,0-1.9,0-2.9
				C51.2,124.2,51.1,124,51,124"/>
			<path class="st1" d="M49,126.3c0.2,0,0.4,0.1,0.6,0.1c-0.1-0.9-0.2-1.8-0.3-2.7C49.1,124.5,49.1,125.4,49,126.3"/>
			<path class="st1" d="M42.9,121.9c-0.1,0-0.2-0.1-0.3-0.1c0,0.5,0,1,0,1.5c0.1,0,0.2,0.1,0.2,0.1c0.1,0,0.2,0.1,0.2,0.1
				c0.1,0,0.2-0.1,0.2-0.3c0-0.2,0-0.5,0-0.7C43.2,122.1,43.1,121.9,42.9,121.9"/>
			<path class="st1" d="M46.5,123.5c0-0.3-0.1-0.4-0.3-0.5c-0.1,0-0.2,0-0.3-0.1c0,0.5,0,1,0,1.5c0.1,0,0.1,0.1,0.2,0.1
				c0.1,0,0.1,0,0.1,0c0.2,0,0.2-0.1,0.2-0.3C46.5,124,46.5,123.7,46.5,123.5"/>
			<path class="st1" d="M42.8,123.8c-0.1,0-0.2-0.1-0.2-0.1c0,0.5,0,1,0,1.5c0.1,0,0.2,0.1,0.3,0.1c0.2,0.1,0.3,0,0.3-0.2v-0.7
				c0-0.2-0.1-0.3-0.2-0.4C43,123.9,42.9,123.9,42.8,123.8"/>
			<path class="st1" d="M60.6,123.9c0-0.3-0.1-0.4-0.3-0.3c-0.1,0-0.2,0-0.3,0v1.6c0.1,0,0.1,0,0.2,0c0.1,0,0.2,0,0.2-0.1
				c0.1-0.1,0.2-0.2,0.2-0.5C60.6,124.4,60.6,124.1,60.6,123.9"/>
			<path class="st1" d="M58.4,126.5c0.2,0,0.4-0.1,0.5-0.1c-0.1-0.9-0.2-1.8-0.3-2.7C58.6,124.7,58.5,125.6,58.4,126.5"/>
			<path class="st1" d="M66.3,121.6L66.3,121.6c-0.2,0.1-0.3,0.3-0.3,0.5c0,1,0,1.9,0,2.9c0,0.3,0.1,0.3,0.3,0.3
				c0.2-0.1,0.3-0.3,0.3-0.5c0-1,0-1.9,0-2.9C66.6,121.6,66.5,121.5,66.3,121.6"/>
			<path class="st1" d="M64.4,118.9c-4.8,2.3-7.5,3-10.2,3c-2.7,0-5.4-0.8-10.2-3c-5.3-2.6-5.9-0.1-5.9-0.1s0.1,7.2,0.1,7.3
				c0.5-1.5,2,0.5,4.7,1.7c6.6,2.9,10.7,2.5,11.3,2.5c0.6,0,4.7,0.4,11.3-2.5c2.7-1.2,4.2-3.1,4.7-1.7c0,0,0.1-7.3,0.1-7.3
				S69.7,116.4,64.4,118.9 M41.1,125.1c-0.5-0.2-1-0.5-1.5-0.7c0-1.5,0.1-3,0.2-4.4c0.2,0.1,0.3,0.1,0.5,0.2c-0.1,1.3-0.1,2.6-0.1,4
				c0.3,0.2,0.6,0.3,1,0.5V125.1z M41.7,125.4c-0.2-0.1-0.3-0.2-0.5-0.2c0-1.5,0-3,0.1-4.5c0.1,0.1,0.3,0.1,0.4,0.2
				C41.8,122.4,41.7,123.9,41.7,125.4 M43.7,123.3c0,0.3-0.1,0.5-0.4,0.5c0.3,0.3,0.4,0.5,0.4,0.8v0.7c0,0.6-0.2,0.8-0.7,0.6
				c-0.3-0.1-0.5-0.2-0.8-0.4c0-1.5,0-3,0.1-4.5c0.3,0.1,0.6,0.2,0.8,0.3c0.5,0.2,0.7,0.6,0.7,1.2C43.7,122.8,43.7,123,43.7,123.3
				 M45.3,122.7c-0.3-0.1-0.6-0.2-0.9-0.3c0,0.5,0,1,0,1.5c0.3,0.1,0.5,0.2,0.8,0.3c0,0.2,0,0.3,0,0.5c-0.3-0.1-0.5-0.2-0.8-0.3v1.5
				c0.3,0.1,0.6,0.2,0.9,0.3v0.5c-0.5-0.2-0.9-0.3-1.4-0.5c0-1.5,0-3.1,0.1-4.6c0.5,0.2,0.9,0.3,1.4,0.5
				C45.3,122.3,45.3,122.5,45.3,122.7 M46.6,127.3c-0.2-0.8-0.4-1.5-0.5-2.3c-0.1,0-0.1,0-0.2,0c0,0.7,0,1.4,0,2.1
				c-0.2,0-0.3-0.1-0.4-0.1c0-1.6,0-3.1,0-4.7c0.3,0.1,0.5,0.1,0.7,0.2c0.5,0.1,0.7,0.5,0.7,1.1v0.7c0,0.4-0.2,0.6-0.5,0.7
				c0.2,0.8,0.4,1.6,0.6,2.4C47,127.4,46.8,127.3,46.6,127.3 M47.6,127.5c0-1.4,0-2.8,0-4.2c-0.2-0.1-0.4-0.1-0.5-0.1
				c0-0.2,0-0.4,0-0.6c0.5,0.1,1,0.3,1.4,0.4v0.5c-0.2,0-0.3-0.1-0.5-0.1c0,1.4,0,2.8,0,4.2C47.8,127.6,47.7,127.6,47.6,127.5
				 M49.7,128c0-0.3-0.1-0.7-0.1-1.1c-0.2,0-0.4-0.1-0.6-0.1c0,0.3-0.1,0.7-0.1,1c-0.2,0-0.3-0.1-0.4-0.1c0-0.5,0.1-1.1,0.1-1.6
				c0.1-1,0.2-2,0.4-3c0.2,0,0.5,0.1,0.6,0.1c0.1,1.1,0.2,2.1,0.4,3.2c0.1,0.6,0.1,1.1,0.2,1.7C50,128.1,49.8,128.1,49.7,128
				 M51,128.2c-0.2,0-0.5-0.1-0.7-0.1c0-1.6,0-3.2,0-4.8c0.3,0,0.5,0.1,0.8,0.1c0.5,0,0.7,0.4,0.7,1v2.9
				C51.7,128,51.4,128.3,51,128.2 M52.8,126.4c-0.1,0.1-0.2,0.2-0.3,0.1c-0.1,0-0.2-0.1-0.3-0.2c-0.1-0.1-0.1-0.2-0.1-0.4
				c0-0.1,0.1-0.3,0.1-0.4c0.1-0.1,0.2-0.1,0.3-0.1c0.1,0,0.2,0,0.3,0.2c0.1,0.1,0.1,0.2,0.1,0.4C53,126.2,52.9,126.3,52.8,126.4
				 M54.7,128.5c-0.4,0-0.9,0-1.3,0v-4.8c0.1,0,0.3,0,0.4,0v4.3c0.3,0,0.6,0,0.9,0V128.5z M56.1,124.1c-0.3,0-0.5,0-0.8,0v1.6
				c0.2,0,0.5,0,0.7,0v0.6c-0.3,0-0.5,0-0.7,0c0,0.5,0,1.1,0,1.6c0.3,0,0.5,0,0.8-0.1c0,0.2,0,0.4,0,0.6c-0.4,0-0.8,0-1.3,0.1
				c0-1.6,0-3.2,0-4.8c0.4,0,0.8,0,1.3-0.1V124.1z M57.7,124.9c-0.1,0-0.3,0-0.4,0.1v-0.6c0-0.3-0.1-0.4-0.3-0.4l0,0
				c-0.2,0-0.3,0.2-0.3,0.4c0,1,0,2,0,3c0,0.3,0.1,0.4,0.3,0.4c0.2,0,0.3-0.2,0.3-0.4c0-0.4,0-0.8,0-1.2c-0.1,0-0.2,0-0.3,0v-0.6
				c0.2,0,0.5,0,0.7-0.1c0,0.6,0,1.2,0,1.8c0,0.6-0.2,1-0.7,1.1c-0.5,0-0.7-0.3-0.7-0.9c0-1,0-2,0-3c0-0.7,0.2-1,0.7-1
				c0.4-0.1,0.7,0.2,0.7,0.9V124.9z M59.1,128c0-0.4,0-0.7-0.1-1c-0.2,0-0.4,0.1-0.7,0.1c0,0.4-0.1,0.7-0.1,1.1
				c-0.1,0-0.3,0-0.4,0.1c0.1-0.6,0.1-1.1,0.2-1.7c0.1-1.1,0.3-2.1,0.4-3.2c0.2,0,0.4-0.1,0.6-0.1c0.1,1,0.3,2,0.4,3
				c0.1,0.5,0.1,1.1,0.2,1.6C59.3,127.9,59.2,128,59.1,128 M60.7,127.6c-0.1-0.7-0.3-1.4-0.5-2.1c-0.1,0-0.1,0-0.2,0.1
				c0,0.7,0,1.4,0,2.1c-0.2,0-0.3,0.1-0.4,0.1c0-1.6,0-3.2,0-4.8c0.3-0.1,0.5-0.1,0.7-0.1c0.4-0.1,0.7,0.2,0.7,0.8
				c0,0.2,0,0.5,0,0.7c0,0.4-0.2,0.7-0.5,0.9c0.2,0.7,0.4,1.4,0.6,2.1C61,127.5,60.9,127.6,60.7,127.6 M62.7,127.1
				c-0.5,0.1-0.9,0.3-1.3,0.4c0-1.6,0-3.2,0-4.7c0.4-0.1,0.9-0.2,1.3-0.4c0,0.2,0,0.4,0,0.6c-0.3,0.1-0.6,0.2-0.9,0.2
				c0,0.5,0,1,0,1.5c0.3-0.1,0.5-0.1,0.8-0.2v0.6c-0.2,0.1-0.5,0.1-0.8,0.2c0,0.5,0,1,0,1.6c0.3-0.1,0.6-0.2,0.9-0.3V127.1z
				 M64.8,126.3c0-1.1,0-2.2,0-3.3c-0.2,1.2-0.4,2.3-0.6,3.5c-0.1,0-0.2,0.1-0.3,0.1c-0.2-1-0.4-2-0.6-3.1c0,1.1,0,2.2,0,3.3
				c-0.2,0.1-0.3,0.1-0.4,0.1c0-1.6,0-3.1,0-4.7c0.1,0,0.3-0.1,0.5-0.1c0.3,1.1,0.5,2.2,0.7,3.3c0.2-1.3,0.5-2.5,0.7-3.8
				c0.2,0,0.3-0.1,0.4-0.2c0.1,1.5,0.1,3.1,0.1,4.6C65.1,126.2,64.9,126.2,64.8,126.3 M66.3,125.8c-0.5,0.2-0.8,0-0.8-0.6
				c0-1,0-1.9,0-2.9c0-0.6,0.3-1,0.8-1.2c0.5-0.2,0.8,0,0.8,0.6c0.1,1,0.1,1.9,0.1,2.9C67.1,125.1,66.9,125.5,66.3,125.8
				 M68.2,124.9c-0.5,0.3-0.8,0.1-0.8-0.5c0-0.2,0-0.4,0-0.6c0.2-0.1,0.3-0.2,0.5-0.2c0,0.2,0,0.4,0,0.6c0,0.2,0.1,0.3,0.3,0.2
				c0.2-0.1,0.3-0.3,0.3-0.5c0-0.2,0-0.4,0-0.5c0-0.3-0.2-0.4-0.6-0.6c-0.4-0.1-0.6-0.4-0.6-0.8c0-0.1,0-0.3,0-0.4
				c0-0.6,0.2-1,0.8-1.3c0.5-0.2,0.8-0.1,0.9,0.5c0,0.2,0,0.4,0,0.5c-0.2,0.1-0.3,0.2-0.5,0.2c0-0.2,0-0.4,0-0.5
				c0-0.3-0.1-0.3-0.3-0.2h0c-0.2,0.1-0.3,0.3-0.3,0.5c0,0.2,0,0.3,0,0.4c0,0.2,0.2,0.4,0.6,0.5c0.4,0.1,0.6,0.4,0.6,0.7
				c0,0.2,0,0.4,0,0.6C69,124.2,68.7,124.6,68.2,124.9"/>
			<path class="st0" d="M33.9,44.5v56.6c0,2.6,4.1,3,8.9,3.5c4,0.4,8.5,0.9,11.2,2.7l0.3,0.2l0.3-0.2c2.7-1.8,7.2-2.2,11.2-2.7
				c4.8-0.5,8.9-0.9,8.9-3.5V44.5H33.9z M73.6,75.5h-19V45.4h19V75.5z M53.8,75.5h-19V45.4h19V75.5z M34.8,101.1V76.4h19v29.7
				c-2.9-1.6-7.1-2-10.9-2.4C38.7,103.2,34.8,102.8,34.8,101.1 M65.6,103.7c-3.8,0.4-8,0.8-10.9,2.4V76.4h19v24.6
				C73.6,102.8,69.7,103.2,65.6,103.7"/>
			<path class="st0" d="M49.3,86.7C49.3,86.7,49.3,86.7,49.3,86.7l-0.2-0.1h-2.2h-0.2c0,0-0.1,0-0.1,0.1l-0.1,2.2h2.8L49.3,86.7z"/>
			<path class="st0" d="M48.8,80.6C48.8,80.5,48.8,80.5,48.8,80.6l-0.3-0.1h-0.7h-0.4c0,0,0,0,0,0.1l-0.2,5.7H49L48.8,80.6z"/>
			<path class="st0" d="M39,80.6C39,80.5,38.9,80.5,39,80.6l-0.3-0.1h-0.7h-0.4c0,0-0.1,0-0.1,0.1l-0.2,5.7h1.8L39,80.6z"/>
			<path class="st0" d="M41.7,85.7h0.5l0-0.1c0-0.1,0.1-0.2,0.2-0.2h1l-0.1-4.8c0,0,0-0.1,0-0.1h-0.3h-0.7h-0.4c0,0-0.1,0-0.1,0.1
				L41.7,85.7C41.6,85.7,41.7,85.7,41.7,85.7"/>
			
				<rect x="40.7" y="88.1" transform="matrix(1.098835e-02 -0.9999 0.9999 1.098835e-02 -48.2263 128.6904)" class="st0" width="0.4" height="1.2"/>
			<polygon class="st0" points="41.8,87.3 41.9,86.9 40.7,86.9 40.6,87.3 			"/>
			<polygon class="st0" points="42.6,86 42.8,85.9 41.7,85.9 41.5,86 			"/>
			<polygon class="st0" points="40.6,90.1 40.7,90.5 41.9,90.5 41.8,90.1 			"/>
			<polygon class="st0" points="41.5,91.4 41.7,91.6 42.8,91.6 42.6,91.4 			"/>
			<path class="st0" d="M44.3,90c-0.5,0.2-1-0.2-1.2-0.9c-0.1-0.7,0.2-1.4,0.7-1.5c0.5-0.2,1,0.2,1.1,0.9C45,89.1,44.8,89.8,44.3,90
				"/>
			<path class="st0" d="M45.9,90.5l0.2-0.4l-0.3-0.3c0,0,0,0,0,0c0-0.2,0.1-0.4,0.1-0.6c0,0,0,0,0,0l0.3-0.1v-0.5L46,88.4
				c0,0,0,0,0,0c0-0.1,0-0.2-0.1-0.3c0-0.1,0-0.2-0.1-0.2c0,0,0,0,0-0.1l0.3-0.3l-0.2-0.4l-0.3,0.1c0,0-0.1,0-0.1,0
				c-0.1-0.1-0.2-0.3-0.3-0.4c0,0,0,0,0,0l0.1-0.5L45,85.9l-0.2,0.3c0,0-0.1,0-0.1,0c-0.1-0.1-0.3-0.1-0.4-0.2c0,0,0,0,0,0l-0.1-0.5
				h-0.4L43.8,86c0,0,0,0,0,0c-0.1,0-0.2,0-0.3,0.1c-0.1,0-0.1,0.1-0.2,0.1c0,0-0.1,0-0.1,0L43,85.9l-0.3,0.3l0.1,0.4c0,0,0,0,0,0.1
				c-0.1,0.1-0.2,0.2-0.3,0.4c0,0,0,0-0.1,0l-0.3-0.1l-0.2,0.5l0.3,0.3c0,0,0,0,0,0.1c-0.1,0.2-0.1,0.4-0.1,0.6c0,0,0,0,0,0
				l-0.3,0.1V89l0.3,0.1c0,0,0,0,0,0c0,0.1,0,0.2,0,0.4c0,0.1,0.1,0.2,0.1,0.3c0,0,0,0,0,0.1l-0.3,0.3l0.2,0.4l0.3-0.1
				c0,0,0.1,0,0.1,0c0.1,0.2,0.2,0.3,0.3,0.4c0,0,0,0.1,0,0.1l-0.1,0.4l0.3,0.2l0.2-0.3c0,0,0.1,0,0.1,0c0.2,0.1,0.3,0.1,0.4,0.2
				c0,0,0,0,0.1,0.1l0.1,0.4h0.4l0.1-0.4c0,0,0,0,0,0c0.1,0,0.2,0,0.2-0.1c0.1,0,0.1-0.1,0.2-0.1c0,0,0.1,0,0.1,0l0.2,0.3l0.3-0.2
				l-0.1-0.5v-0.1c0.1-0.1,0.2-0.3,0.3-0.4c0,0,0.1,0,0.1,0L45.9,90.5z M44.4,90.5c-0.1,0.1-0.2,0.1-0.4,0.1c-0.6,0-1.2-0.6-1.4-1.4
				c-0.2-1,0.2-2,1-2.3c0.1,0,0.3-0.1,0.4-0.1c0.6,0,1.2,0.6,1.4,1.4C45.6,89.2,45.1,90.3,44.4,90.5"/>
			<path class="st0" d="M44.6,91.5c-0.1,0-0.1,0-0.2,0.1l0,0.1h0.5l-0.2-0.3C44.7,91.4,44.6,91.5,44.6,91.5"/>
			<path class="st0" d="M44.7,86.1l0.2-0.3h-0.5l0,0.1C44.5,86,44.6,86,44.7,86.1"/>
			<path class="st0" d="M42.4,90.6l-0.3,0.1v0h0h-0.9c0,0,0.1,0.1,0.1,0.1h1.3C42.5,90.7,42.4,90.6,42.4,90.6"/>
			<polygon class="st0" points="41.3,91.3 42.6,91.3 42.6,91 41.3,91 			"/>
			<path class="st0" d="M42,89.5c0-0.1,0-0.2-0.1-0.3l-0.3-0.1h-1.1h0v0c0,0.1,0.1,0.2,0.1,0.3c0,0.1,0,0.1,0,0.2H42
				C42,89.6,42,89.6,42,89.5"/>
			<polygon class="st0" points="40.5,90 41.8,90 41.9,89.8 40.7,89.8 			"/>
			<polygon class="st0" points="41.8,87.5 40.5,87.5 40.7,87.6 41.9,87.6 			"/>
			<path class="st0" d="M40.6,88.3C40.6,88.3,40.6,88.3,40.6,88.3L40.6,88.3l1,0l0.3-0.1c0-0.2,0.1-0.3,0.1-0.5h-1.3
				C40.7,88,40.6,88.1,40.6,88.3"/>
			<path class="st0" d="M42.4,91.7l0,0.1h1.3l-0.1-0.3c-0.1-0.1-0.2-0.1-0.4-0.1l-0.2,0.3c0,0,0,0,0,0l-0.1,0l0,0H42.4z"/>
			<polygon class="st0" points="42.6,86.2 41.3,86.2 41.3,86.5 42.6,86.5 			"/>
			<path class="st0" d="M41.2,86.8h0.9c0,0,0,0,0,0h0l0.3,0.1c0.1-0.1,0.1-0.1,0.2-0.2h-1.3C41.3,86.7,41.2,86.7,41.2,86.8"/>
			<path class="st0" d="M43,85.7L43,85.7L43,85.7C43,85.7,43.1,85.7,43,85.7l0.3,0.3c0.1,0,0.1,0,0.1,0c0,0,0.1,0,0.2-0.1l0.1-0.3
				h-1.3l0,0.1H43z"/>
			<path class="st0" d="M41.2,91.5c-0.1-0.1-0.1-0.1-0.1-0.2l0.1-0.4c-0.1,0-0.1-0.1-0.1-0.2h0l0,1.1l0.4-0.2L41.2,91.5z"/>
			<polygon class="st0" points="42.8,91.8 42.8,91.2 41.8,91.8 			"/>
			<path class="st0" d="M45.9,94.1c0.1,0,0.1,0.1,0.2,0.2l0.4,0.9c0,0.1,0,0.2,0,0.3l0,0L46,96c0,0.1,0,0.2,0.1,0.3
				c0,0.1,0,0.2,0.1,0.4l0.4,0.1c0.1,0,0.2,0.2,0.2,0.3v1c0,0.2-0.1,0.3-0.2,0.3l-0.4,0.1c0,0,0,0,0,0h3v-6.3L45.9,94.1z"/>
			<path class="st0" d="M51.2,89.3h-1.6h-3.2h-0.2h-0.1c0,0.1,0,0.3-0.1,0.4l0.2,0.3c0,0.1,0,0.1,0,0.2l-0.2,0.5
				c0,0.1-0.2,0.1-0.3,0.1l-0.2-0.1c0,0.1-0.1,0.2-0.2,0.2l0.1,0.4c0,0.1,0,0.2-0.1,0.2l-0.4,0.3c0,0-0.1,0.1-0.1,0.1h-0.2v0.8
				l0.3,0.2c0.1,0.1,0.1,0.2,0.1,0.4L45,93.9c0,0.1,0.1,0.1,0.1,0.2h0.1l3.9-2.3l0.1-0.1c0,0,0.1,0,0.2,0c0.1,0,0.1,0.1,0.1,0.2v6.7
				h1.7L51.2,89.3C51.3,89.3,51.3,89.3,51.2,89.3"/>
			<polygon class="st0" points="38.3,97.9 38.3,97.1 36.3,97.1 36.3,97.9 			"/>
			<polygon class="st0" points="38.7,95.1 39,94.5 37,94.5 36.7,95.1 			"/>
			<polygon class="st0" points="40.1,92.9 40.4,92.7 38.6,92.7 38.3,92.9 			"/>
			<polygon class="st0" points="36.7,100 37,100.5 39,100.5 38.7,100 			"/>
			<polygon class="st0" points="38.3,102.1 38.5,102.3 40.4,102.3 40.1,102.1 			"/>
			<path class="st0" d="M42.9,99.6c-0.8,0.3-1.7-0.3-2-1.5c-0.2-1.1,0.2-2.3,1.1-2.6c0.8-0.3,1.7,0.3,2,1.5
				C44.3,98.1,43.8,99.3,42.9,99.6"/>
			<path class="st0" d="M45.8,100.6l0.3-0.7l-0.4-0.6c0,0,0-0.1,0-0.1c0.1-0.3,0.2-0.6,0.2-1c0,0,0-0.1,0.1-0.1l0.6-0.2v-0.9
				l-0.6-0.2c0,0-0.1,0-0.1-0.1c0-0.2-0.1-0.4-0.1-0.6c0-0.1-0.1-0.3-0.1-0.4c0,0,0-0.1,0-0.1l0.4-0.6l-0.3-0.7l-0.6,0.2
				c0,0-0.1,0-0.1,0c-0.1-0.2-0.3-0.5-0.5-0.7c0,0,0-0.1,0-0.1l0.2-0.8l-0.5-0.4l-0.4,0.6c0,0-0.1,0.1-0.1,0
				c-0.2-0.1-0.5-0.2-0.7-0.3C43,93,43,93,43,92.9l-0.1-0.8h-0.6l-0.1,0.8c0,0,0,0.1-0.1,0.1c-0.2,0-0.3,0.1-0.4,0.1
				c-0.1,0-0.2,0.1-0.3,0.1c0,0-0.1,0-0.1,0l-0.4-0.6l-0.5,0.4l0.2,0.7c0,0,0,0.1,0,0.1c-0.2,0.2-0.4,0.5-0.5,0.7c0,0-0.1,0.1-0.1,0
				l-0.5-0.2l-0.3,0.7l0.4,0.5c0,0,0,0.1,0,0.1c-0.1,0.3-0.2,0.7-0.2,1c0,0,0,0.1-0.1,0.1l-0.5,0.2v0.9l0.5,0.2c0,0,0.1,0,0.1,0.1
				c0,0.2,0.1,0.4,0.1,0.6c0,0.1,0.1,0.3,0.1,0.4c0,0,0,0.1,0,0.1l-0.4,0.5l0.3,0.7l0.5-0.2c0,0,0.1,0,0.1,0
				c0.2,0.3,0.3,0.5,0.5,0.7c0,0,0,0.1,0,0.1l-0.2,0.7l0.5,0.4l0.4-0.5c0,0,0.1,0,0.1,0c0.3,0.1,0.5,0.2,0.8,0.3
				c0,0,0.1,0.1,0.1,0.1l0.1,0.7h0.6l0.1-0.7c0,0,0-0.1,0.1-0.1c0.1,0,0.3-0.1,0.4-0.1c0.1,0,0.2-0.1,0.3-0.1c0,0,0.1,0,0.1,0
				l0.4,0.5l0.5-0.4l-0.2-0.8c0,0,0-0.1,0-0.1c0.2-0.2,0.4-0.4,0.5-0.7c0,0,0.1-0.1,0.1,0L45.8,100.6z M43.2,100.6
				c-0.2,0.1-0.4,0.1-0.7,0.1c-1.1,0-2-1-2.3-2.3c-0.3-1.7,0.4-3.4,1.6-3.9c0.2-0.1,0.4-0.1,0.7-0.1c1.1,0,2,1,2.3,2.3
				C45.2,98.4,44.4,100.1,43.2,100.6"/>
			<path class="st0" d="M43.5,102.2c-0.1,0-0.2,0.1-0.3,0.1l0,0.2h0.9l-0.3-0.5C43.6,102.1,43.6,102.1,43.5,102.2"/>
			<path class="st0" d="M43.8,93l0.3-0.5h-0.9l0,0.3C43.4,92.8,43.6,92.9,43.8,93"/>
			<path class="st0" d="M39.7,100.6l-0.5,0.2h0c0,0,0,0,0,0h-1.5c0.1,0.1,0.1,0.1,0.2,0.2H40C39.9,100.9,39.8,100.8,39.7,100.6"/>
			<polygon class="st0" points="37.9,101.8 40,101.8 40.2,101.4 38,101.4 			"/>
			<path class="st0" d="M39,98.8c-0.1-0.2-0.1-0.3-0.1-0.5l-0.5-0.2h-1.8l0.1,0c0,0,0,0,0,0c0,0.2,0.1,0.4,0.1,0.6
				c0,0.1,0,0.2,0.1,0.3h2.2C39.1,99,39,98.9,39,98.8"/>
			<polygon class="st0" points="36.6,99.7 38.8,99.7 39,99.4 36.8,99.4 			"/>
			<polygon class="st0" points="38.8,95.4 36.6,95.4 36.9,95.6 39,95.6 			"/>
			<path class="st0" d="M36.8,96.8C36.8,96.8,36.7,96.8,36.8,96.8l-0.1,0.1h1.8l0.5-0.1c0-0.3,0.1-0.5,0.1-0.8h-2.2
				C36.9,96.2,36.8,96.5,36.8,96.8"/>
			<path class="st0" d="M39.8,102.7l0,0.2H42l-0.1-0.6c-0.2,0-0.4-0.1-0.6-0.2l-0.3,0.5c0,0,0,0-0.1,0c0,0,0,0,0,0l0,0H39.8z"/>
			<polygon class="st0" points="40.1,93.2 37.9,93.2 38,93.7 40.2,93.7 			"/>
			<path class="st0" d="M37.8,94.2h1.4c0,0,0,0,0,0h0l0.5,0.2c0.1-0.1,0.2-0.3,0.3-0.4h-2.1C37.9,94.1,37.8,94.1,37.8,94.2"/>
			<path class="st0" d="M40.9,92.4L40.9,92.4L40.9,92.4C40.9,92.4,40.9,92.4,40.9,92.4l0.5,0.6c0.1,0,0.2-0.1,0.2-0.1
				c0.1,0,0.2-0.1,0.4-0.1l0.1-0.6h-2.2l0,0.2H40.9z"/>
			<polygon class="st0" points="43.2,92.1 43.3,92.3 44,92.3 44,92.1 43.2,92.1 			"/>
			<path class="st0" d="M38.8,90.7L38.8,90.7C38.8,90.7,38.8,90.7,38.8,90.7c0.2,0.1,0.2,0.1,0.2,0.2v1.4h0.5l0-0.2
				c0.1-0.1,0.1-0.2,0.2-0.2l-0.2-5.1c0,0,0-0.1,0-0.1h-0.2h-2.2h-0.2c0,0,0,0,0,0.1l-0.2,5.4l2-1.4C38.7,90.7,38.8,90.7,38.8,90.7"
				/>
			<path class="st0" d="M68.1,83.9h1.3v-0.3c0-0.8,0.7-1.4,1.5-1.4c0.8,0,1.4,0.6,1.4,1.4v3c0,0.1-0.1,0.2-0.2,0.2H71l1.2,2.6
				c0,0.1,0,0.1,0,0.2c0,0.1-0.1,0.1-0.2,0.1h-0.7l1.3,2.5c0,0,0,0.1,0,0.1v10.3h1V81.4h-5.5V83.9z"/>
			<polygon class="st0" points="71.7,89.2 69.4,84.3 67.9,84.3 57.3,84.3 55.1,89.2 55.9,89.2 70.9,89.2 			"/>
			<path class="st0" d="M71.2,101.2l-0.4-1.2V89.7H56.1v12.8h0.9l-0.1,0.3c0,0.1,0,0.2,0,0.2c0,0.1,0.1,0.1,0.2,0.1h6.3
				c0,0,0.1,0,0.2-0.1c0.3-0.2,0.5-0.3,0.6-0.3h0.1c0.1,0,0.1,0,0.2,0c0,0,0.2-0.1,0.6,0.3c0,0,0.1,0.1,0.2,0.1h6.3
				c0.1,0,0.3-0.1,0.3-0.3c0,0,0-0.1,0-0.1l-0.1-0.3h0.6V92.3l-1-2V101.2z M67.1,96.1c0.7,0.2,1.3,0.3,1.8,0.3c0.3,1,1.2,4,1.7,5.4
				l0,0.1c-0.5,0-1-0.2-1.5-0.3c-0.9-0.2-1.9-0.4-3-0.4c-0.5,0-1,0-1.4,0.1v-5.5c0.1-0.1,0.3-0.1,0.6-0.1
				C65.7,95.7,66.4,95.9,67.1,96.1 M67.9,92.2c0.8,0,1.5,0.6,1.5,1.4v2.6l-0.1-0.2c0,0,0,0,0-0.1c0,0,0,0,0,0c0,0,0,0,0,0h0
				c0,0-0.1,0-0.1,0h0h0l-1-0.1c-0.3-0.1-0.6-0.1-0.9-0.2c-0.2-0.1-0.5-0.1-0.8-0.2v-1.8C66.5,92.8,67.1,92.2,67.9,92.2 M59.3,93.6
				c0-0.8,0.6-1.4,1.4-1.4c0.8,0,1.5,0.6,1.5,1.4v1.8c-0.3,0.1-0.5,0.1-0.8,0.2c-0.3,0.1-0.6,0.2-0.8,0.2l-1,0.1c0,0,0,0,0,0
				c0,0,0,0,0,0c0,0,0,0,0,0c0,0,0,0,0,0c0,0,0,0,0,0c0,0,0,0.1,0,0.1l-0.1,0.2V93.6z M64.1,102.4c-0.2,0-0.4,0.1-0.7,0.3h-5.8
				l0.1-0.2c0.1,0,0.1,0,0.2,0h0c0.6,0,1.3-0.2,2-0.3c0.9-0.2,1.8-0.4,2.9-0.4c0.5,0,1,0.1,1.5,0.1V102.4z M64.1,101.4
				c-0.5-0.1-1-0.1-1.5-0.1c-1.1,0-2.1,0.2-3,0.4c-0.5,0.1-1,0.2-1.5,0.3l0-0.1c0.5-1.5,1.3-4.4,1.6-5.4c0.5,0,1.1-0.2,1.8-0.3
				c0.7-0.2,1.4-0.4,1.9-0.4c0.3,0,0.4,0.1,0.6,0.1V101.4z M64.4,95.4c-0.2-0.1-0.5-0.2-0.8-0.2c-0.2,0-0.4,0-0.6,0.1v-1.7
				c0-0.8,0.7-1.4,1.4-1.4c0.8,0,1.4,0.6,1.4,1.4v1.7c-0.2,0-0.4-0.1-0.6-0.1C64.9,95.2,64.6,95.3,64.4,95.4 M65.3,102.7
				c-0.3-0.2-0.5-0.3-0.7-0.3v-0.5c0.5-0.1,0.9-0.1,1.4-0.1c1.1,0,2,0.2,2.9,0.4c0.7,0.2,1.4,0.3,2,0.3l0,0c0.1,0,0.1,0,0.1,0
				l0.1,0.2H65.3z"/>
			<polygon class="st0" points="73.6,79 68.3,79 67.4,81 67.9,81 73.9,81 74.5,81 			"/>
			<polygon class="st0" points="54.7,102.5 55.7,102.5 55.7,90.3 54.7,92.3 			"/>
			<path class="st1" d="M67,54.5c1.8,0,3.3-0.3,3.3-0.7c0-0.4-1.5-0.7-3.3-0.7c-1.8,0-3.3,0.3-3.3,0.7C63.6,54.1,65.1,54.5,67,54.5"
				/>
			<path class="st1" d="M66.3,52c0,0.4,0.3,0.8,0.7,0.8c0.4,0,0.7-0.4,0.7-0.8c0-0.5-0.3-0.8-0.7-0.8C66.6,51.2,66.3,51.5,66.3,52"
				/>
			<path class="st1" d="M68,51.5c0.1,0.1,0.1,0.3,0.1,0.4c0,0.2-0.1,0.4-0.1,0.6c1.3,0.1,2.3,0.4,2.8,0.8c0.2-0.2,0.3-0.3,0.3-0.5
				C71.1,52.2,69.8,51.7,68,51.5"/>
			<path class="st1" d="M65.8,52c0-0.2,0-0.3,0.1-0.4c-1.7,0.2-3,0.7-3,1.3c0,0.2,0.1,0.4,0.3,0.5c0.5-0.4,1.5-0.7,2.8-0.8
				C65.9,52.4,65.8,52.2,65.8,52"/>
			<path class="st1" d="M70.6,51.5c0.2-0.2,0.6-0.6,0.8-1.1c0.5-0.8,0.6-1.7,0.6-1.7s-0.8,0.5-1.3,1.3c-0.3,0.5-0.5,1-0.6,1.3
				C70.3,51.4,70.5,51.5,70.6,51.5"/>
			<path class="st1" d="M69.6,51.2c0.2-0.3,0.4-0.7,0.6-1.3c0.3-0.9,0.1-1.7,0.1-1.7s-0.6,0.6-0.9,1.6c-0.2,0.6-0.2,1.1-0.2,1.4
				C69.3,51.2,69.4,51.2,69.6,51.2"/>
			<path class="st1" d="M68.4,51c0.2-0.3,0.3-0.9,0.4-1.6c0.1-1-0.3-1.9-0.3-1.9s-0.5,0.8-0.6,1.8c-0.1,0.7,0,1.3,0.1,1.6
				C68.1,51,68.2,51,68.4,51"/>
			<path class="st1" d="M67,50.9h0.1c0.2-0.3,0.3-1.1,0.3-2.1c0-1.2-0.4-2.2-0.4-2.2s-0.4,1-0.4,2.2c0,1,0.1,1.8,0.3,2.1H67z"/>
			<path class="st1" d="M65.6,51c0.1,0,0.2,0,0.4-0.1c0.1-0.3,0.2-0.9,0.1-1.6c-0.1-1-0.6-1.8-0.6-1.8s-0.4,0.9-0.3,1.9
				C65.3,50.1,65.4,50.7,65.6,51"/>
			<path class="st1" d="M64.4,51.2c0.1,0,0.3-0.1,0.4-0.1c0-0.3,0-0.8-0.2-1.4c-0.3-0.9-0.9-1.6-0.9-1.6s-0.2,0.8,0.1,1.7
				C64,50.5,64.2,51,64.4,51.2"/>
			<path class="st1" d="M63.3,51.5c0.2-0.1,0.3-0.1,0.5-0.2c-0.1-0.3-0.3-0.8-0.6-1.3c-0.5-0.8-1.3-1.3-1.3-1.3s0.1,0.9,0.6,1.7
				C62.8,50.9,63.1,51.3,63.3,51.5"/>
			<path class="st1" d="M61.3,63.7c1.8,0,3.3-0.3,3.3-0.7c0-0.4-1.5-0.7-3.3-0.7c-1.8,0-3.3,0.3-3.3,0.7
				C58,63.4,59.5,63.7,61.3,63.7"/>
			<path class="st1" d="M60.6,61.3c0,0.4,0.3,0.8,0.7,0.8c0.4,0,0.7-0.4,0.7-0.8c0-0.5-0.3-0.8-0.7-0.8C61,60.4,60.6,60.8,60.6,61.3
				"/>
			<path class="st1" d="M62.4,60.8c0.1,0.1,0.1,0.3,0.1,0.4c0,0.2-0.1,0.4-0.1,0.6c1.3,0.1,2.3,0.4,2.8,0.8c0.2-0.2,0.3-0.3,0.3-0.5
				C65.5,61.5,64.2,61,62.4,60.8"/>
			<path class="st1" d="M60.2,61.3c0-0.2,0-0.3,0.1-0.4c-1.8,0.2-3.1,0.7-3.1,1.3c0,0.2,0.1,0.4,0.3,0.5c0.5-0.4,1.5-0.7,2.8-0.8
				C60.3,61.7,60.2,61.5,60.2,61.3"/>
			<path class="st1" d="M65,60.8c0.3-0.2,0.6-0.6,0.9-1.1c0.5-0.8,0.6-1.7,0.6-1.7s-0.8,0.4-1.3,1.3c-0.3,0.5-0.5,1-0.6,1.3
				C64.7,60.7,64.9,60.8,65,60.8"/>
			<path class="st1" d="M63.9,60.5c0.2-0.3,0.4-0.7,0.6-1.3c0.3-0.9,0.1-1.7,0.1-1.7S64,58.1,63.7,59c-0.2,0.6-0.2,1.1-0.2,1.4
				C63.6,60.4,63.8,60.5,63.9,60.5"/>
			<path class="st1" d="M62.8,60.3c0.1-0.3,0.3-0.9,0.4-1.6c0.1-1-0.3-1.9-0.3-1.9s-0.5,0.8-0.6,1.8c-0.1,0.7,0,1.3,0.1,1.6
				C62.5,60.3,62.6,60.3,62.8,60.3"/>
			<path class="st1" d="M61.3,60.2h0.1c0.2-0.3,0.3-1.1,0.3-2.1c0-1.2-0.4-2.2-0.4-2.2s-0.4,1-0.4,2.2c0,1,0.1,1.8,0.3,2.1H61.3z"/>
			<path class="st1" d="M59.9,60.3c0.1,0,0.3,0,0.4,0c0.1-0.3,0.1-0.9,0.1-1.6c-0.1-1-0.6-1.8-0.6-1.8s-0.3,0.9-0.3,1.9
				C59.6,59.4,59.8,60,59.9,60.3"/>
			<path class="st1" d="M58.7,60.5c0.2,0,0.3-0.1,0.5-0.1c0-0.3,0-0.9-0.2-1.4c-0.3-0.9-0.9-1.6-0.9-1.6s-0.2,0.8,0.1,1.7
				C58.3,59.7,58.5,60.2,58.7,60.5"/>
			<path class="st1" d="M57.7,60.8c0.1-0.1,0.3-0.1,0.5-0.2c-0.1-0.3-0.3-0.8-0.6-1.3c-0.5-0.8-1.3-1.3-1.3-1.3s0.1,0.9,0.6,1.7
				C57.2,60.2,57.4,60.6,57.7,60.8"/>
			<path class="st1" d="M67,73.1c1.8,0,3.3-0.3,3.3-0.7c0-0.4-1.5-0.7-3.3-0.7c-1.8,0-3.3,0.3-3.3,0.7C63.7,72.8,65.2,73.1,67,73.1"
				/>
			<path class="st1" d="M66.3,70.6c0,0.4,0.3,0.8,0.7,0.8c0.4,0,0.7-0.4,0.7-0.8c0-0.5-0.3-0.8-0.7-0.8
				C66.6,69.8,66.3,70.2,66.3,70.6"/>
			<path class="st1" d="M68.1,70.2c0,0.1,0.1,0.3,0.1,0.4c0,0.2-0.1,0.4-0.2,0.6c1.3,0.1,2.3,0.4,2.8,0.8c0.2-0.2,0.3-0.3,0.3-0.5
				C71.2,70.9,69.9,70.4,68.1,70.2"/>
			<path class="st1" d="M65.8,70.6c0-0.2,0-0.3,0.1-0.4c-1.7,0.2-3,0.7-3,1.3c0,0.2,0.1,0.4,0.3,0.5c0.5-0.4,1.6-0.7,2.8-0.8
				C65.9,71.1,65.8,70.9,65.8,70.6"/>
			<path class="st1" d="M70.7,70.2c0.3-0.2,0.6-0.6,0.8-1.1c0.5-0.8,0.6-1.7,0.6-1.7s-0.8,0.5-1.3,1.3c-0.3,0.5-0.5,1-0.6,1.3
				C70.4,70.1,70.5,70.2,70.7,70.2"/>
			<path class="st1" d="M69.6,69.9c0.2-0.3,0.4-0.8,0.6-1.3c0.3-0.9,0.1-1.7,0.1-1.7s-0.6,0.6-0.9,1.5c-0.2,0.6-0.3,1.1-0.2,1.4
				C69.3,69.8,69.5,69.9,69.6,69.9"/>
			<path class="st1" d="M68.4,69.7c0.2-0.3,0.3-0.9,0.4-1.6c0.1-1-0.3-1.9-0.3-1.9S68,67,67.9,68c-0.1,0.7,0,1.3,0.1,1.6
				C68.1,69.7,68.3,69.7,68.4,69.7"/>
			<path class="st1" d="M67,69.6C67,69.6,67.1,69.6,67,69.6c0.3-0.2,0.4-1.1,0.4-2.1c0-1.2-0.4-2.2-0.4-2.2s-0.4,1-0.4,2.2
				c0,1,0.1,1.8,0.3,2.1C66.9,69.6,67,69.6,67,69.6"/>
			<path class="st1" d="M65.6,69.7c0.1,0,0.2,0,0.4,0c0.1-0.3,0.1-0.9,0.1-1.6c-0.1-1-0.6-1.8-0.6-1.8s-0.3,0.9-0.2,1.9
				C65.3,68.8,65.5,69.4,65.6,69.7"/>
			<path class="st1" d="M64.4,69.9c0.1,0,0.3-0.1,0.4-0.1c0-0.3-0.1-0.9-0.2-1.4c-0.3-0.9-0.9-1.5-0.9-1.5s-0.2,0.8,0,1.7
				C64,69.1,64.2,69.6,64.4,69.9"/>
			<path class="st1" d="M63.4,70.2c0.2-0.1,0.3-0.1,0.5-0.2c-0.1-0.3-0.3-0.8-0.6-1.3c-0.5-0.8-1.3-1.3-1.3-1.3s0.1,0.9,0.6,1.7
				C62.8,69.6,63.1,70,63.4,70.2"/>
			<path class="st0" d="M46.5,99.9l-0.3,0.7h1.3c0.1,0,0.2,0.1,0.2,0.2v3.5c0.4,0.1,0.8,0.1,1.1,0.2v-3.7c0-0.1,0.1-0.2,0.2-0.2h2.4
				c0.1,0,0.2,0.1,0.2,0.2v4.3c0.4,0.1,0.8,0.3,1.2,0.5v-6.7h-1.3h-2.1h-3.3c0,0.1,0,0.1,0,0.2l0.4,0.5
				C46.5,99.7,46.5,99.8,46.5,99.9"/>
			<path class="st0" d="M51.1,105V101h-2v3.6C49.8,104.7,50.5,104.8,51.1,105"/>
			<path class="st0" d="M44.7,102.5v1.4c0.9,0.1,1.7,0.2,2.6,0.3V101h-2.1c0,0.1-0.1,0.2-0.2,0.3l0.1,0.6c0,0.1,0,0.3-0.1,0.3
				L44.7,102.5z"/>
			<path class="st0" d="M44.3,103.8v-1.1c0,0-0.1,0-0.1,0h-0.9l-0.1,0.2v0.7C43.6,103.7,43.9,103.8,44.3,103.8"/>
			<path class="st0" d="M34.8,101.1c0,1.8,3.9,2.2,8,2.6v-0.4h-3c-0.2,0-0.3-0.1-0.4-0.3l0-0.2h-1c-0.1,0-0.2,0-0.2-0.1l-0.6-0.5
				c-0.1-0.1-0.1-0.2-0.1-0.3l0.1-0.6c-0.1-0.1-0.1-0.2-0.2-0.3h-0.6l-0.1,0c-0.1,0-0.2-0.1-0.2-0.2l-0.4-0.9
				c-0.1-0.1-0.1-0.2,0-0.3l0-0.1l0.3-0.4c0-0.1-0.1-0.2-0.1-0.3c0-0.1,0-0.3-0.1-0.4L36,98.3c0,0,0,0-0.1-0.1c0,0-0.1-0.1-0.1-0.2
				v-1c0-0.1,0.1-0.2,0.2-0.3l0.1,0l0.4-0.1c0-0.2,0.1-0.5,0.1-0.7l-0.4-0.5c0-0.1-0.1-0.2,0-0.3l0.4-0.9c0-0.1,0.1-0.2,0.2-0.2
				l0.1,0h0.6c0.1-0.1,0.1-0.2,0.2-0.2l-0.1-0.6c0-0.1,0-0.2,0.1-0.3l0.7-0.5c0,0,0.1-0.1,0.2-0.1h0.1v-1l-2.1,1.4l-1.8,1.3
				L34.8,101.1L34.8,101.1z"/>
			<path class="st0" d="M49.3,76.5L49.3,76.5l-1.9-0.1c0,0.2,0.1,0.3,0.1,0.4l0,0.1l0,0l0,0v0h0c0,0,0.1,0.2,0.1,0.1l0.1,0.2
				c0.2,0.2,0.3,0.4,0.4,0.5c0,0,0.1,0.1,0.1,0.2c0,0.1,0,0.1-0.1,0.3c0,0.2-0.2,0.5-0.2,0.7c0,0.2-0.1,0.3-0.1,0.4
				c0,0.1-0.1,0.3-0.1,0.5c0,0.1,0,0.2,0,0.3h0.8c0,0,0-0.1,0-0.2c0.1-0.1,0.1-0.2,0.2-0.3c0-0.1,0.1-0.2,0.2-0.3
				c0.1-0.3,0.3-0.4,0.4-0.8c0.1-0.1,0.2-0.3,0.2-0.5c0.1-0.2,0.1-0.5,0-0.7C49.5,77,49.4,76.7,49.3,76.5"/>
			<path class="st0" d="M43.8,76.5L43.8,76.5l-1.9-0.1c0,0.2,0.1,0.3,0.1,0.4l0.1,0.1l0,0v0l0,0h0c0,0,0.1,0.2,0,0.1h0l0.1,0.2
				c0.2,0.2,0.3,0.4,0.4,0.5c0,0,0,0.1,0.1,0.2c0,0.1,0,0.1-0.1,0.3c0,0.2-0.2,0.5-0.2,0.7c-0.1,0.2-0.1,0.3-0.1,0.4
				c0,0.1-0.1,0.3-0.1,0.5c0,0.1,0,0.2,0,0.3h0.8c0,0,0-0.1,0.1-0.2c0.1-0.1,0.1-0.2,0.1-0.3c0.1-0.1,0.1-0.2,0.2-0.3
				c0.2-0.3,0.3-0.4,0.5-0.8c0.1-0.1,0.1-0.3,0.2-0.5c0.1-0.2,0.1-0.5,0-0.7C44,77,43.8,76.7,43.8,76.5"/>
			<path class="st0" d="M39.5,76.5L39.5,76.5l-1.9-0.1c0,0.2,0.1,0.3,0.1,0.4l0,0.1l0,0v0l0,0c0,0,0.1,0.2,0,0.1l0.1,0.2
				c0.2,0.2,0.3,0.4,0.4,0.5c0,0,0,0.1,0.1,0.2c0,0.1,0,0.1-0.1,0.3c0,0.2-0.2,0.5-0.2,0.7c-0.1,0.2-0.1,0.3-0.2,0.4
				c0,0.1-0.1,0.3-0.1,0.5c0,0.1,0,0.2,0,0.3h0.8c0,0,0-0.1,0.1-0.2c0-0.1,0.1-0.2,0.1-0.3c0.1-0.1,0.1-0.2,0.2-0.3
				c0.2-0.3,0.3-0.4,0.5-0.8c0.1-0.1,0.2-0.3,0.2-0.5c0-0.2,0.1-0.5,0-0.7C39.7,77,39.6,76.7,39.5,76.5"/>
		</g>
	</g>
	<g>
		<path class="st0" d="M141.9,58.9H153v10.5c-0.9,0.9-4.3,4.4-11.3,4.4c-7.4,0-13.6-4.7-13.6-13.5c0-8.4,6.1-13.5,13.5-13.5
			c6.8,0,9.8,3.6,10.7,4.6l-3.3,2.9c-1.3-1.5-3.6-3.3-7.4-3.3c-4.8,0-8.4,3.4-8.4,9.3c0,5.9,3.8,9.3,8.6,9.3c4.8,0,6.4-2,6.4-2v-4.8
			h-6.3V58.9z"/>
		<path class="st0" d="M156.2,64.2c0-5.8,4.3-9.6,10-9.6c5.6,0,9.9,3.8,9.9,9.6c0,5.8-4.3,9.5-9.9,9.5
			C160.5,73.8,156.2,70.1,156.2,64.2z M166.2,58.6c-3.2,0-4.9,2.4-4.9,5.6c0,3.1,1.7,5.6,4.9,5.6c3.1,0,4.9-2.5,4.9-5.6
			C171.1,61,169.3,58.6,166.2,58.6z"/>
		<path class="st0" d="M184.5,47.2v8.2c0,1.4-0.1,2.2-0.1,2.2h0.1c1.6-2.1,3.7-3,6.1-3c5.4,0,8.7,4.2,8.7,9.6c0,5.2-3.5,9.5-9,9.5
			c-2.6,0-4.6-0.9-6-3h-0.1l-0.1,2.7h-4.5V47.2H184.5z M184.4,64.2c0,3.1,2,5.8,5.1,5.8c3.2,0,5-2.7,5-5.8c0-3.2-2-5.7-5.1-5.7
			C186.4,58.5,184.4,60.8,184.4,64.2z"/>
		<path class="st0" d="M202.4,49.4c0-1.6,1.2-2.7,2.9-2.7c1.7,0,2.9,1.1,2.9,2.7c0,1.6-1.2,2.7-2.9,2.7
			C203.6,52.1,202.4,51,202.4,49.4z M207.8,55v18.4h-4.9V55H207.8z"/>
		<path class="st0" d="M221.6,70.1c2.5,0,4.7-1.1,5.5-1.9l1.9,2.6c-1,1.1-3.8,3-8.3,3c-5.5,0-9.6-3.4-9.6-9.3c0-5.9,4.3-9.8,9.5-9.8
			c5.7,0,9.1,3.7,9.1,8.6c0,0.9-0.1,2.5-0.1,2.5h-13.5C216.6,68.6,218.9,70.1,221.6,70.1z M216.1,62.6h8.8c-0.1-2-0.8-4.3-4.3-4.3
			C217.8,58.3,216.3,60.3,216.1,62.6z"/>
		<path class="st0" d="M237.8,55l-0.1,3h0.1c0.7-2,2.5-3.3,4.5-3.3c1.3,0,1.9,0.3,1.9,0.3l-0.3,4.2h-0.2c-0.5-0.2-1.4-0.2-2-0.2
			c-1.4,0-2.5,0.6-3.2,1.8c-0.5,0.9-0.7,2.2-0.7,3.6v9H233V55H237.8z"/>
		<path class="st0" d="M255.6,58.6c-3,0-4,2.5-4,5.6v9.1h-4.9V55h4.9l0,2.8h0.1c1-1.9,2.8-3.1,5.5-3.1c5.3,0,6.6,3.4,6.6,7.8v10.9
			h-4.9v-9.8C258.9,60.8,258.4,58.6,255.6,58.6z"/>
		<path class="st0" d="M267,64.2c0-5.8,4.3-9.6,10-9.6c5.6,0,9.9,3.8,9.9,9.6c0,5.8-4.3,9.5-9.9,9.5C271.3,73.8,267,70.1,267,64.2z
			 M276.9,58.6c-3.2,0-4.9,2.4-4.9,5.6c0,3.1,1.7,5.6,4.9,5.6c3.1,0,4.9-2.5,4.9-5.6C281.9,61,280,58.6,276.9,58.6z"/>
		<path class="st0" d="M142.9,111.6c-1.5,2.4-3.8,3.3-6.3,3.3c-5.4,0-8.7-4.2-8.7-9.6c0-5.2,3.5-9.5,9-9.5c2.5,0,4.6,0.9,5.8,2.9
			h0.1c0-0.8,0-1.8,0-3.1v-7.2h4.8v26.2h-4.6l0-2.9H142.9z M143,105.2c0-3.1-2-5.8-5.1-5.8c-3.2,0-5,2.7-5,5.8c0,3.2,2,5.7,5.1,5.7
			C140.9,110.9,143,108.7,143,105.2z"/>
		<path class="st0" d="M161.6,111.2c2.5,0,4.7-1.1,5.5-1.9l1.9,2.6c-1,1.1-3.8,3-8.3,3c-5.5,0-9.6-3.4-9.6-9.3
			c0-5.9,4.3-9.8,9.5-9.8c5.7,0,9.1,3.7,9.1,8.6c0,0.9-0.1,2.5-0.1,2.5h-13.5C156.6,109.8,158.8,111.2,161.6,111.2z M156.1,103.7
			h8.8c-0.1-2-0.8-4.3-4.3-4.3C157.7,99.4,156.2,101.4,156.1,103.7z"/>
		<path class="st0" d="M203.4,94.7l-7,19.9H193l-6.8-19.9H186l-1.4,19.8h-4.7l2.2-26.2h6.5l6.3,18.8h0.1l6.4-18.8h6.3l2.2,26.2H205
			L203.4,94.7L203.4,94.7z"/>
		<path class="st0" d="M213.3,90.5c0-1.6,1.2-2.7,2.9-2.7c1.7,0,2.9,1.1,2.9,2.7c0,1.6-1.2,2.7-2.9,2.7
			C214.5,93.2,213.3,92.1,213.3,90.5z M218.6,96.1v18.4h-4.9V96.1H218.6z"/>
		<path class="st0" d="M237.4,108.9l1.4,3.6c-0.4,0.3-2.3,2.5-7.2,2.5c-5,0-9.6-3.5-9.6-9.5c0-6,4.8-9.7,9.7-9.7
			c4.6,0,6.5,1.9,6.9,2.4l-1.3,3.6c-0.6-0.5-2.2-1.9-5-1.9c-2.9,0-5.2,2-5.2,5.4c0,3.4,2.3,5.6,5.5,5.6S237.4,108.9,237.4,108.9z"/>
		<path class="st0" d="M258.6,103.6v10.9h-4.9v-9.8c0-2.7-0.5-4.9-3.3-4.9c-3,0-4,2.5-4,5.6v9.1h-4.8V88.3h4.8v10.6h0.1
			c1-1.9,2.8-3.1,5.5-3.1C257.3,95.8,258.6,99.2,258.6,103.6z"/>
		<path class="st0" d="M261.8,105.4c0-5.8,4.3-9.6,10-9.6c5.6,0,9.9,3.8,9.9,9.6c0,5.8-4.3,9.5-9.9,9.5
			C266.2,114.9,261.8,111.2,261.8,105.4z M271.8,99.7c-3.2,0-4.9,2.4-4.9,5.6c0,3.1,1.7,5.6,4.9,5.6c3.1,0,4.9-2.5,4.9-5.6
			C276.7,102.1,274.9,99.7,271.8,99.7z"/>
		<path class="st0" d="M290.1,114.9c-3.6,0-6.5-1.9-6.5-5.8c0-3.8,3.8-5.3,7.6-5.6l4.4-0.3v-0.5c0-2.4-1.6-3.5-4.1-3.5
			c-2.4,0-4.4,0.9-5.2,1.5l-1.5-3.1c1.4-0.8,4-1.9,7.2-1.9c3.3,0,5.1,0.8,6.5,2.1c1.3,1.3,2,3,2,6.1v10.5h-4.7l-0.1-2.1
			C295,113.7,292.9,114.9,290.1,114.9z M288.6,109c0,1.6,1.2,2.6,3.2,2.6c1.9,0,3.3-1.1,3.9-2v-3.4l-3.3,0.2
			C289.8,106.5,288.6,107.4,288.6,109z"/>
		<path class="st0" d="M318.8,108.9l1.4,3.6c-0.4,0.3-2.3,2.5-7.2,2.5c-5,0-9.6-3.5-9.6-9.5c0-6,4.8-9.7,9.7-9.7
			c4.6,0,6.5,1.9,6.9,2.4l-1.3,3.6c-0.6-0.5-2.2-1.9-5-1.9c-2.9,0-5.2,2-5.2,5.4c0,3.4,2.3,5.6,5.5,5.6S318.8,108.9,318.8,108.9z"/>
		<path class="st0" d="M328.6,114.9c-3.6,0-6.5-1.9-6.5-5.8c0-3.8,3.8-5.3,7.6-5.6l4.4-0.3v-0.5c0-2.4-1.6-3.5-4.1-3.5
			c-2.4,0-4.4,0.9-5.2,1.5l-1.5-3.1c1.4-0.8,4-1.9,7.2-1.9c3.3,0,5.1,0.8,6.5,2.1c1.3,1.3,2,3,2,6.1v10.5h-4.7l-0.1-2.1
			C333.5,113.7,331.4,114.9,328.6,114.9z M327,109c0,1.6,1.2,2.6,3.2,2.6c1.9,0,3.3-1.1,3.9-2v-3.4l-3.3,0.2
			C328.3,106.5,327,107.4,327,109z M335.8,88.3l-4.1,5.5h-3.5l3.2-5.5H335.8z"/>
		<path class="st0" d="M352,99.7c-3,0-4,2.5-4,5.6v9.1h-4.9V96.1h4.9l0,2.8h0.1c1-1.9,2.8-3.1,5.5-3.1c5.3,0,6.6,3.4,6.6,7.8v10.9
			h-4.9v-9.8C355.3,101.9,354.8,99.7,352,99.7z"/>
	</g>
</g>
</svg>
